<?xml version="1.0" encoding="UTF-8" standalone="no"?>
<!-- Created with Inkscape (http://www.inkscape.org/) -->

<svg
   version="1.1"
   id="svg1"
   width="79.40802"
   height="110.68323"
   viewBox="0 0 79.40802 110.68322"
   sodipodi:docname="5d9d0ecfc9877e4a783f8fe35ed61725.jpg"
   xml:space="preserve"
   xmlns:inkscape="http://www.inkscape.org/namespaces/inkscape"
   xmlns:sodipodi="http://sodipodi.sourceforge.net/DTD/sodipodi-0.dtd"
   xmlns="http://www.w3.org/2000/svg"
   xmlns:svg="http://www.w3.org/2000/svg"><defs
     id="defs1" /><sodipodi:namedview
     id="namedview1"
     pagecolor="#ffffff"
     bordercolor="#000000"
     borderopacity="0.25"
     inkscape:showpageshadow="2"
     inkscape:pageopacity="0.0"
     inkscape:pagecheckerboard="0"
     inkscape:deskcolor="#d1d1d1"
     showgrid="false"><inkscape:page
       x="0"
       y="0"
       width="79.40802"
       height="110.68322"
       id="page2"
       margin="0"
       bleed="0" /></sodipodi:namedview><g
     inkscape:groupmode="layer"
     id="layer1"
     inkscape:label="Image 1"
     transform="translate(-710.76471,-1298.1723)"><g
       id="layer1-9"
       transform="matrix(0.23996638,0.00401714,-0.00401714,0.23996638,647.2143,998.81322)"
       fill="none"
       style="stroke:#000000;stroke-opacity:1"><path
         id="path15-1"
         transform="translate(289.69442,1237.3231)"
         fill="#0076ae"
         stroke-opacity="0"
         stroke="#000000"
         stroke-width="0"
         stroke-linecap="square"
         stroke-linejoin="bevel"
         d="m 326.714,449.202 c -1.891,-6.724 -9.134,-17.569 -17.187,-25.734 -13.376,-13.563 -51.826,-2.363 -60.049,-33.74 -1.253,-4.781 -3.401,-6.188 -7.775,-5.093 -6.591,1.651 -18.121,-9.151 -25.642,-24.024 -4.874,-9.638 0.793,-25.719 9.063,-25.719 4.801,0 15.678,14.059 12.92,16.7 -0.951,0.911 -3.73,-2.001 -6.176,-6.472 -4.447,-8.128 -4.447,-8.128 -6.508,-0.263 -1.134,4.326 -3.524,7.866 -5.313,7.866 -1.788,0 1.913,6.036 8.225,13.414 6.312,7.377 13.039,13.237 14.947,13.021 7.946,-0.899 11.228,0.579 11.228,5.054 0,26.05 49.037,22.11 61.328,34.694 11.003,11.265 12.179,17.77 15.937,28.105 6.701,18.433 -0.523,18.107 -4.998,2.191 z M 286.93,395.566 c -2.506,-3.95 -6.668,-10.503 -9.25,-14.563 -2.581,-4.061 -8.268,-8.242 -12.638,-9.292 -8.608,-2.07 -13.698,-11.34 -13.698,-24.95 0,-4.701 -1.396,-9.373 -3.103,-10.383 -1.707,-1.01 -3.103,-3.259 -3.103,-4.997 0,-7.775 9.745,5.509 12.931,17.626 2.761,10.504 5.475,14.083 12.967,17.099 5.898,2.376 12.743,9.262 18.138,18.248 4.766,7.938 8.676,12.732 8.69,10.654 0.014,-2.078 -3.623,-9.059 -8.083,-15.513 -6.05,-8.757 -7.777,-14.447 -6.804,-22.427 1.31,-10.751 -3.411,-16.157 -15.828,-18.124 -6.05,-0.958 -18.282,-12.968 -13.208,-12.968 2.186,0 3.293,-1.058 2.458,-2.351 -0.834,-1.293 3.262,-1.816 9.101,-1.163 5.84,0.653 9.846,2.384 8.902,3.847 -0.945,1.464 -5.331,1.792 -9.747,0.731 -5.63,-1.354 -7.374,-0.913 -5.833,1.475 1.209,1.872 5.955,3.447 10.548,3.499 13.858,0.157 20.698,7.298 20.317,21.212 -0.23,8.411 2.004,15.511 7.181,22.817 8.513,12.014 8.585,24.784 0.147,25.943 -3.112,0.428 -7.522,-2.38 -10.085,-6.42 z m 13.118,-46.094 c -4.805,-3.794 -5.336,-5.922 -2.67,-10.694 5.612,-10.042 -22.317,-32.131 -36.223,-28.648 -8.406,2.105 -8.951,-3.874 -0.586,-6.417 32.339,-7.615 34.562,25.966 46.968,38.809 15.056,32.118 12.263,23.615 -7.489,6.95 z m -187.217,13.653 c -0.983,-2.452 -4.979,-4.458 -8.88,-4.458 -8.4657,0 -12.0774,-7.129 -7.6373,-15.075 1.7606,-3.15 1.9797,-5.728 0.487,-5.728 -1.4928,0 -4.3047,3.343 -6.2487,7.43 -3.9568,8.317 -13.2968,9.764 -19.1827,2.971 -2.1246,-2.451 -5.8683,-4.457 -8.3194,-4.457 -6.8948,0 -28.9167,-18.208 -28.9167,-23.909 0,-2.795 2.0945,-6.747 4.6545,-8.782 7.0903,-5.635 5.5604,-9.246 -3.0416,-7.179 C 27.2698,305.976 9.3964,292.802 9.21035,284.38 9.15605,281.923 7.11565,277.388 4.67607,274.302 1.55753,270.356 1.12864,267.101 3.23164,263.337 5.17911,259.852 5.13716,257.342 3.1114,256.143 1.40013,255.13 0,251.385 0,247.82 c 0,-6.251 0.27454,-6.197 7.75753,1.532 8.67987,8.965 10.16437,17.187 3.10297,17.187 -2.55994,0 -4.65447,1.338 -4.65447,2.972 0,1.635 2.09453,2.972 4.65447,2.972 4.6823,0 5.8368,3.028 4.8168,12.631 -0.3144,2.96 1.5369,5.2 4.2972,5.2 2.6673,0 4.8496,2.006 4.8496,4.458 0,2.452 2.0945,4.458 4.6545,4.458 2.56,0 4.6545,-1.337 4.6545,-2.972 0,-4.24 11.0627,-3.682 14.7367,0.743 4.33,5.215 2.2778,13.884 -4.4156,18.654 -5.329,3.797 -5.0196,4.571 5.194,13.002 5.9733,4.931 12.8451,9.02 15.2708,9.086 2.4256,0.066 6.7739,2.17 9.6629,4.674 4.7717,4.135 5.7242,3.863 10.4007,-2.972 6.3802,-9.326 20.5194,-10.562 20.5194,-1.793 0,3.152 -2.194,7.833 -4.876,10.401 -4.4326,4.246 -3.8684,4.67 6.206,4.67 7.782,0 11.083,1.328 11.083,4.458 0,5.198 4.89,5.928 7.95,1.187 1.178,-1.825 5.937,-2.539 10.763,-1.614 6.132,1.174 9.194,0.306 10.511,-2.981 1.022,-2.551 3.718,-3.955 5.992,-3.119 7.666,2.817 12.788,-3.17 11.829,-13.829 -1.45,-16.123 15.322,-18.948 19.43,-3.272 1.648,6.288 3.166,7.072 10.394,5.375 14.716,-3.457 38.246,-33.556 32.014,-40.952 -1.485,-1.762 -2.48,-6.547 -2.211,-10.634 0.601,-9.144 10.161,-8.735 17.888,0.765 5.029,6.182 5.174,6.092 11.179,-6.909 9.707,-21.016 10.42,-24.085 6.611,-28.48 -4.376,-5.05 -1.644,-8.364 4.909,-5.956 8.364,3.074 6.014,17.082 -7.184,42.809 -6.198,12.084 -15.653,12.698 -22.911,1.486 -3.725,-5.753 -5.315,-6.685 -5.373,-3.147 -0.046,2.764 1.313,5.852 3.02,6.862 12.2,7.221 -11.399,43.151 -33.454,50.935 -10.614,3.746 -22.4,-1.251 -22.4,-9.498 0,-4.482 -3.715,-5.684 -7.214,-2.333 -1.123,1.075 -0.627,3.587 1.101,5.582 4.918,5.675 -1.67,19.583 -8.149,17.202 -3.368,-1.238 -7.113,0.582 -10.822,5.258 -4.958,6.251 -6.479,6.674 -12.086,3.368 -4.577,-2.699 -8.115,-2.912 -12.346,-0.743 -8.221,4.214 -12.434,3.802 -14.525,-1.418 z m 8.947,-25.721 c -7.417,-7.104 -0.02,-23.315 10.639,-23.315 5.917,0 13.926,11.381 12.898,18.329 -1.183,8.002 -16.91,11.333 -23.537,4.986 z M 66.42,310.805 c -3.2512,-3.44 -5.4434,-7.118 -4.8716,-8.172 6.525,-12.031 24.1865,-13.282 27.163,-1.924 4.2246,16.121 -10.3578,22.725 -22.2914,10.096 z m 62.355,-4.606 c -3.413,-0.691 -9.383,-1.907 -13.266,-2.703 -8.861,-1.814 -30.707,-20.502 -36.4924,-31.217 -2.3997,-4.444 -8.5929,-12.132 -13.7627,-17.083 -9.1297,-8.744 -12.5637,-22.095 -6.592,-25.63 1.5442,-0.914 2.0856,-6.818 1.203,-13.12 -1.2008,-8.574 -0.2611,-12.5 3.7337,-15.601 2.936,-2.279 8.3292,-7.371 11.9848,-11.316 26.0536,-28.114 39.4876,-34.674 65.7016,-32.083 22.505,2.224 33.401,8.443 48.034,27.413 6.915,8.965 13.86,16.3 15.433,16.3 3.142,0 15.562,25.121 15.562,31.477 0,2.187 -2.609,5.313 -5.797,6.947 -4.078,2.09 -5.353,5.194 -4.3,10.469 1.007,5.043 -0.098,8.084 -3.373,9.288 -2.679,0.984 -9.187,9.115 -14.463,18.069 -13.375,22.698 -38.202,33.935 -63.606,28.79 z m 31.604,-10.13 c 11.82,-4.277 25.802,-17.484 25.802,-24.371 0,-3.088 4.009,-9.456 8.909,-14.149 6.379,-6.108 8.5,-10.588 7.466,-15.768 -0.795,-3.979 0.083,-8.14 1.951,-9.245 6.041,-3.576 3.647,-9.934 -9.017,-23.948 -6.827,-7.554 -12.412,-14.888 -12.412,-16.298 0,-7.437 -17.315,-21.133 -32.039,-25.343 -21.269,-6.081 -34.906,-3.362 -53.5983,13.529 -4.7461,4.289 -9.8181,9.491 -15.4237,15.696 -3.5304,3.907 -8.086,7.636 -10.1235,8.287 -2.2688,0.724 -4.2687,10.14 -5.1604,24.296 -1.4136,22.441 -1.2319,23.195 6.2447,25.918 4.2353,1.542 7.7006,4.128 7.7006,5.746 0,4.71 18.9014,24.015 30.8886,31.548 12.171,7.648 33.954,9.478 48.812,4.102 z m -35.65,-10.845 c -7.43,-1.36 -13.104,-11.293 -12.907,-22.593 0.082,-4.697 1.847,-2.949 6.383,6.318 5.383,11.001 7.45,12.681 14.626,11.888 14.623,-1.617 11.94,-23.213 -2.884,-23.213 -3.205,0 -5.826,-1.338 -5.826,-2.972 0,-3.421 15.536,-3.958 20.169,-0.697 4.273,3.006 5.145,21.013 1.347,27.809 -3.061,5.479 -6.643,6.072 -20.908,3.46 z m 21.888,-34.571 c -3.84,-3.636 -6.981,-8.236 -6.981,-10.222 0,-1.985 -3.142,-3.631 -6.982,-3.656 -3.84,-0.025 -9.076,-1.341 -11.636,-2.926 -3.463,-2.143 -1.674,-2.892 6.981,-2.926 6.468,-0.025 11.637,1.416 11.637,3.244 0,1.809 3.24,-2.337 5.889,-3.311 2.648,-0.973 16.402,-3.009 12.523,-1.572 -1.604,0.594 -8.473,12.168 -3.974,14.991 7.489,4.7 8.416,4.727 10.988,0.325 1.545,-2.644 4.752,-4.807 7.126,-4.807 7.656,0 8.049,-5.279 1.316,-17.65 -7.716,-14.178 -10.835,-16.66 -13.276,-10.566 -0.979,2.443 -3.704,4.441 -6.057,4.441 -2.352,0 -7.497,2.675 -11.432,5.944 -4.796,3.983 -11.348,5.868 -19.869,5.715 l -12.713,-0.228 11.624,-3.487 c 6.393,-1.917 13.803,-6.495 16.467,-10.173 2.663,-3.678 6.708,-6.687 8.989,-6.687 2.281,0 4.95,-2.006 5.933,-4.457 3.808,-9.506 22.955,-3.323 24.851,8.025 0.355,2.124 3.15,7.474 6.211,11.889 6.471,9.331 4.499,19.03 -4.419,21.741 -3.328,1.011 -7.495,4.423 -9.26,7.581 -4.23,7.571 -15.241,7.006 -23.936,-1.228 z m -30.607,-43.62 c 4.926,-3.819 12.411,-7.296 16.633,-7.727 4.222,-0.431 8.334,-1.413 9.137,-2.183 2.517,-2.41 -5.104,-13.513 -11.538,-16.811 -6.439,-3.3 -6.208,-3.597 -15.717,20.104 -1.476,3.677 -4.979,6.686 -7.784,6.686 -4.394,0 -4.51,-0.682 -0.843,-4.914 2.343,-2.703 4.376,-7.049 4.519,-9.659 0.489,-8.922 7.339,-21.089 11.873,-21.089 15.235,0 30.352,15.149 27.431,27.488 -1.164,4.915 -3.889,6.018 -22.497,9.098 -4.267,0.706 -10.551,2.334 -13.964,3.616 -4.085,1.536 -3.144,-0.041 2.75,-4.609 z m -82.7857,62.455 c -7.3142,-10.001 -3.3138,-18.306 8.2961,-17.224 8.814,0.821 9.6793,1.832 9.6793,11.304 0,12.746 -10.4629,16.192 -17.9754,5.92 z M 273.065,247.222 c -2.124,-2.451 -7.506,3.996 -10.811,3.996 -3.305,0 -4.61,-2.813 -3.555,-4.448 3.142,-4.868 16.917,-10.35 20.324,-4.748 3.012,4.953 3.167,4.953 3.257,0 0.052,-2.861 1.155,-5.201 2.451,-5.201 1.296,0 4.193,-2.817 6.438,-6.259 3.543,-5.435 3.233,-7.123 -2.357,-12.822 -3.541,-3.61 -6.438,-7.917 -6.438,-9.572 0,-1.654 -4.018,-2.443 -8.929,-1.753 -7.162,1.007 -8.866,0.169 -8.609,-4.229 0.176,-3.017 -4.028,-12.029 -9.342,-20.027 -9.26,-13.937 -9.812,-14.274 -13.267,-8.091 -5.176,9.264 -20.187,7.187 -20.796,-2.876 -0.24,-3.95 0.76,-8.601 2.222,-10.337 3.771,-4.477 -6.888,-24.862 -13.062,-24.98 -2.788,-0.053 -5.835,-2.906 -6.773,-6.34 -0.937,-3.433 -3.144,-5.39 -4.903,-4.349 -1.759,1.041 -5.82,-0.617 -9.024,-3.686 -5.699,-5.457 -5.898,-5.395 -9.153,2.863 -6.384,16.198 -22.484,10.138 -22.484,-8.463 0,-5.279 -1.313,-7.022 -4.428,-5.877 -2.435,0.894 -5.807,0.035 -7.493,-1.911 -1.721,-1.986 -8.97,-3.213 -16.518,-2.796 -21.957,1.211 -21.455,0.925 -19.464,11.088 3.195,16.313 -20.0581,23.262 -24.4175,7.297 -3.9114,-14.325 -36.1101,15.712 -40.2422,7.92 0,-10.034 42.2089,-19.99 47.4599,-10.594 2.7555,4.931 4.3805,5.499 7.8478,2.743 3.293,-2.617 3.564,-4.924 1.096,-9.339 -4.2714,-7.645 -1.176,-15.0424 5.725,-13.684 2.992,0.589 7.032,-0.9308 8.979,-3.3774 2.841,-3.5709 5.061,-3.7841 11.256,-1.081 5.011,2.187 8.777,2.3519 10.741,0.4705 4.46,-4.2716 25.359,9.3969 25.58,16.7299 0.368,12.249 5.007,14.374 11.868,5.438 5.683,-7.401 7.22,-7.964 12.81,-4.695 3.493,2.043 8.573,3.715 11.287,3.715 5.323,0 23.076,15.548 23.076,20.21 0,1.56 2.095,4.502 4.655,6.536 5.591,4.444 6.089,15.268 0.93,20.209 -2.723,2.608 -2.8,4.451 -0.287,6.857 2.513,2.407 4.376,1.608 6.936,-2.972 1.925,-3.444 6,-6.262 9.055,-6.262 5.928,0 19.05,11.651 19.05,16.915 0,1.738 2.192,4.902 4.87,7.031 2.679,2.129 4.208,6.298 3.398,9.265 -1.182,4.327 -0.107,5.066 5.432,3.735 5.464,-1.314 8.641,0.738 15.221,9.832 10.674,14.752 10.457,20.842 -1.165,32.719 -10.65,10.882 -12.959,11.533 -18.447,5.2 z m -30.409,-19.911 c -7.383,-7.071 -0.905,-20.209 9.964,-20.209 3.98,0 11.107,14.447 9.323,18.899 -2.278,5.685 -13.895,6.475 -19.287,1.31 z M 0.84628,200.787 c 0,-19.036 20.34632,-44.345 32.15932,-40.004 7.8873,2.899 10.8332,-1.169 5.8154,-8.03 -8.4134,-11.504 13.2982,-36.048 22.9066,-26.846 2.2043,2.112 -6.6021,8.858 -10.2305,8.858 -6.8004,0 -12.5275,5.837 -4.9519,15.061 3.4133,4.156 6.206,9.357 6.206,11.557 0,4.6 -13.2528,8.553 -20.1626,6.013 -2.5638,-0.942 -4.6615,-0.418 -4.6615,1.166 0,1.583 -2.0004,2.878 -4.4454,2.878 -2.445,0 -5.4259,3.009 -6.6242,6.687 -1.1984,3.677 -3.7239,7.634 -5.6123,8.791 -3.94039,2.415 -4.65539,11.925 -1.0871,14.459 1.3204,0.938 -0.23467,3.989 -3.4556,6.781 -5.65105,4.898 -5.85622,4.64 -5.85622,-7.371 z m 26.86502,1.609 c -4.5155,-5.211 -1.6694,-11.887 7.405,-17.369 10.5575,-6.378 22.5333,8.384 14.4082,17.76 -4.9466,5.709 -16.7102,5.497 -21.8132,-0.391 z m 38.1915,-37.38 c -5.4343,-5.205 -4.765,-12.716 1.5878,-17.821 9.7212,-7.813 14.7393,-5.123 14.7393,7.9 0,12.753 -8.1802,17.724 -16.3271,9.921 z m 183.4182,-7.75 c -20.817,-9.491 -10.525,-40.312 13.584,-40.675 7.229,-0.109 8.775,-1.559 9.644,-9.046 0.57,-4.903 3.362,-11.5899 6.206,-14.859 5.055,-5.8105 5.026,-5.8272 -1.28,-0.7429 -3.547,2.8604 -9.203,5.2007 -12.567,5.2007 -7.63,0 -13.564,5.4612 -13.564,12.4822 0,2.942 -2.761,7.993 -6.136,11.225 -6.57,6.293 -15.585,5.187 -15.585,-1.912 0,-2.373 -1.396,-3.488 -3.103,-2.478 -1.707,1.01 -4.648,0.922 -6.537,-0.196 -2.394,-1.417 -2.159,-2.807 0.775,-4.588 7.076,-4.294 12.045,-2.964 14.71,3.936 2.318,6 2.894,5.539 6.511,-5.2 5.355,-15.903 8.596,-19.2129 18.811,-19.2129 7.234,0 10.803,-3.1023 21.341,-18.5493 7.086,-10.3866 19.107,-11.2604 19.107,-8.2639 0,2.9432 -5.055,-0.4092 -3.349,-1.4194 9.989,-5.9122 -0.63,22.4791 -12.138,32.4531 -4.049,3.5092 -5.89,7.7374 -4.8,11.0254 2.949,8.9 -3.969,17.445 -14.126,17.445 -5.019,0 -13.697,2.669 -19.285,5.932 -5.588,3.263 -8.332,5.938 -6.098,5.944 2.286,0.01 3.091,1.516 1.842,3.451 -1.52,2.357 -0.113,2.912 4.472,1.764 7.026,-1.76 9.51,2.252 2.812,4.543 -5.159,1.765 -2.503,4.219 6.989,6.457 10.041,2.368 39.094,-19.173 33.319,-24.704 -2.647,-2.535 -2.21,-3.387 1.738,-3.387 11.329,0 5.981,13.865 -9.464,24.537 -19.332,13.357 -22.246,14.119 -33.829,8.838 z m -70.049,-2.749 c -1.553,-6.81 3.711,-18.739 8.268,-18.739 7.528,0 17.595,9.601 16.66,15.889 -1.299,8.728 -23.021,11.211 -24.928,2.85 z m -57.45,-17.928 c -5.946,-8.691 -0.754,-15.67 11.656,-15.67 10.184,0 13.536,6.171 8.781,16.167 -4.272,8.979 -14.118,8.739 -20.437,-0.497 z m 89.161,-17.181 c -8.933,-10.309 7.406,-43.0671 21.48,-43.0671 2.63,0 9.887,-5.3494 16.127,-11.8875 C 254.831,57.9154 316.439,0 318.468,0 c 5.72,0 -74.209,82.0149 -80.051,82.158 -11.159,0.2732 -29.252,29.54 -21.206,34.303 3.827,2.265 4.092,7.429 0.38,7.429 -1.498,0 -4.471,-2.017 -6.608,-4.482 z m -27.085,191.828 c -4.047,-5.498 3.71,-18.739 8.268,-18.739 7.528,0 17.595,9.602 16.66,15.889 -1.299,8.729 -19.97,9.585 -24.928,2.85 z"
         sodipodi:nodetypes="ssssssssssssssssssssssssssssssssssssssssssssssssssssssssssssssssssssssssscssssssssssssssssssssssssssssssssssssssssssssssssssssssssssssssssssssssssssssssssssssssssssssssssscccssssssssssssssssssssssssssssssssssssssssssssssssssssssssssssssssssssssssssssssssssssssssssssssssssssssssssssssssssssssssssssscsssssssssssssssssssssssscssc"
         style="fill:#0076ae;fill-opacity:1;stroke:#9080e2;stroke-opacity:0.460697" /></g></g></svg>
