<?xml version="1.0" encoding="UTF-8" standalone="no"?>
<!-- Created with Inkscape (http://www.inkscape.org/) -->

<svg
   width="152.67897mm"
   height="14.52476mm"
   viewBox="0 0 152.67897 14.52476"
   version="1.1"
   id="svg1"
   xml:space="preserve"
   xmlns:inkscape="http://www.inkscape.org/namespaces/inkscape"
   xmlns:sodipodi="http://sodipodi.sourceforge.net/DTD/sodipodi-0.dtd"
   xmlns="http://www.w3.org/2000/svg"
   xmlns:svg="http://www.w3.org/2000/svg"><sodipodi:namedview
     id="namedview1"
     pagecolor="#ffffff"
     bordercolor="#000000"
     borderopacity="0.25"
     inkscape:showpageshadow="2"
     inkscape:pageopacity="0.0"
     inkscape:pagecheckerboard="0"
     inkscape:deskcolor="#d1d1d1"
     inkscape:document-units="mm"
     showguides="true"><sodipodi:guide
       position="11.726234,14.114743"
       orientation="0,-1"
       id="guide11"
       inkscape:locked="false" /><sodipodi:guide
       position="9.6682593,0.64436297"
       orientation="0,-1"
       id="guide12"
       inkscape:locked="false" /><inkscape:page
       x="0"
       y="0"
       width="152.67897"
       height="14.52476"
       id="page2"
       margin="0"
       bleed="0" /></sodipodi:namedview><defs
     id="defs1" /><g
     inkscape:label="Layer 1"
     inkscape:groupmode="layer"
     id="layer1"
     transform="translate(-34.484666,-406.32075)"><path
       style="fill:#b7c6c3;fill-opacity:1"
       d="m 68.365153,420.60832 c 0.948406,-0.24972 2.093478,-0.71959 2.54457,-1.04413 0.816596,-0.58752 0.821772,-0.58779 1.183538,-0.0619 0.354751,0.51568 0.385205,0.51683 1.287049,0.0478 0.540727,-0.28128 0.886355,-0.64123 0.833616,-0.86815 -0.0495,-0.21322 -3.57e-4,-0.29853 0.109902,-0.1896 0.361514,0.35799 1.164395,-0.66661 1.177432,-1.50258 0.01173,-0.75121 0.03263,-0.77018 0.253313,-0.22921 0.133301,0.3268 0.394373,0.52983 0.585576,0.45536 0.512158,-0.19938 1.830338,-2.52694 1.667691,-2.94466 -0.07725,-0.19852 -0.05772,-0.56972 0.04371,-0.82486 0.137451,-0.34619 0.219846,-0.22985 0.324665,0.45843 0.235091,1.54367 0.918206,1.33963 1.863888,-0.55677 1.151701,-2.3095 2.930249,-4.0636 4.646275,-4.58234 0.751468,-0.22717 1.642957,-0.35495 1.981078,-0.28396 1.93329,-0.83569 -6.27382,-1.77767 -8.104479,-0.0999 -0.138787,0.12721 -0.442237,0.23451 -0.676949,0.23566 -0.754938,0.003 -3.165142,1.32638 -3.163141,1.73592 0.0014,0.21791 0.120994,0.39564 0.266525,0.39493 0.579932,-0.003 0.21663,0.43994 -0.610025,0.74344 -1.030106,0.37819 -3.144042,2.13248 -2.947924,2.44639 0.07444,0.11928 0.402997,0.15897 0.729929,0.0882 0.338019,-0.0731 0.123897,0.13835 -0.496409,0.49031 -1.854607,1.05227 -2.776397,1.92659 -2.57541,2.44278 0.09896,0.25406 0.342769,0.39849 0.541897,0.32095 0.199121,-0.0775 0.362525,-0.0435 0.363108,0.0757 5.81e-4,0.11917 -0.741238,0.59581 -1.648486,1.05919 -2.016826,1.0301 -4.850935,1.45199 -5.336681,0.79447 -0.253094,-0.34258 -0.405139,-0.35539 -0.918413,-0.0776 l -0.615116,0.33309 0.761303,0.52427 c 0.619907,0.42691 3.031991,0.71647 3.638884,0.62183 0.08486,-0.0132 1.340692,0.2466 2.289108,-0.003 z m -12.280845,-0.33073 c 0.905239,-0.53266 1.081282,-0.56785 1.057317,-0.2113 -0.05003,0.74486 1.344778,0.6794 2.370937,-0.1112 0.501412,-0.38636 0.830698,-0.8316 0.731932,-0.98966 -0.107394,-0.17189 -0.05639,-0.21209 0.126861,-0.10002 0.192579,0.11773 0.305422,-0.009 0.30379,-0.34185 -0.0038,-0.68991 0.489387,-1.02942 0.327041,-0.15712 -0.09846,0.52916 -0.01463,0.65353 0.439172,0.6513 0.742788,-0.003 3.193254,-2.40077 3.189739,-3.12036 -0.0015,-0.30588 0.08378,-0.77469 0.18969,-1.04177 0.150122,-0.3789 0.223255,-0.28229 0.332884,0.43977 0.209127,1.37754 0.78154,1.14729 1.839046,-0.73975 1.766881,-3.15294 3.606299,-4.45709 6.588844,-4.67146 1.439177,-0.10341 1.614407,-0.46657 0.474741,-0.98376 -2.269081,-1.02973 -11.322641,0.42246 -11.51933,1.84769 -0.06351,0.46053 0.05443,0.59744 0.532189,0.61766 0.337621,0.0143 0.104827,0.1289 -0.517315,0.25465 -1.102609,0.22289 -2.220657,0.85725 -3.422338,1.94173 -0.747608,0.67471 -0.750513,0.97261 -0.0095,0.96898 0.40485,-0.002 0.185127,0.2002 -0.724348,0.66653 -0.718009,0.36816 -1.590854,0.89298 -1.939649,1.16628 -0.789691,0.61871 -0.598748,1.37979 0.295453,1.17766 0.695005,-0.15712 -1.242759,1.0787 -2.687448,1.71392 -1.222045,0.53731 -3.809308,0.50984 -4.672334,-0.0496 -0.623925,-0.40445 -0.700432,-0.40103 -1.197802,0.0535 -0.522367,0.47741 -0.498541,0.49376 1.416196,0.97205 1.071142,0.26754 2.721656,0.53121 3.667822,0.58587 1.455579,0.0841 1.887421,10e-4 2.80637,-0.53967 z m -14.796898,0.40749 c 0.75381,-0.13379 1.862289,-0.41539 2.463308,-0.62574 0.951291,-0.33297 1.07399,-0.33286 0.947857,5.6e-4 -0.224168,0.59282 0.504397,0.70906 1.424859,0.22735 1.241423,-0.64966 2.907476,-2.26234 2.904787,-2.8117 -9.83e-4,-0.26554 0.105262,-0.55002 0.236805,-0.63221 0.131553,-0.0822 0.178046,0.0891 0.103292,0.38075 -0.107024,0.41761 -0.0054,0.52957 0.476798,0.52721 0.652146,-0.003 2.768483,-2.06368 3.304227,-3.21706 0.162744,-0.35038 0.428413,-0.93535 0.590356,-1.29995 0.177774,-0.40023 0.244893,-0.45299 0.169392,-0.13312 -0.06872,0.29137 -0.01517,0.7031 0.119222,0.91495 0.208058,0.32805 0.328918,0.30786 0.815206,-0.13629 0.31401,-0.28679 0.791423,-0.95871 1.060912,-1.49317 1.127662,-2.23641 4.222788,-3.8089 6.296102,-3.19875 1.405508,0.41364 1.647913,0.14721 0.701218,-0.25977 -0.6136,-0.26379 -0.942452,-0.30745 -1.218638,-0.41822 -2.837295,-1.13806 -5.4814,-0.82233 -5.450858,-0.29765 0.01427,0.24471 -0.315698,0.36778 -0.440899,0.57254 -0.187027,0.30593 -0.06963,0.24686 -0.928534,-0.006 -1.407997,-0.41435 -2.225905,-0.38293 -3.500849,0.13445 -1.208484,0.49039 -1.246637,0.95022 -0.09899,1.19283 0.765451,0.1618 0.764013,0.16379 -0.153098,0.2089 -1.198431,0.0589 -4.324916,1.62993 -4.437369,2.22964 -0.06491,0.34589 0.09903,0.46366 0.66084,0.47492 0.715759,0.0144 0.706097,0.0303 -0.230416,0.3797 -0.537627,0.20056 -1.645947,0.87453 -2.46294,1.49766 -1.268405,0.9674 -1.469543,1.23767 -1.376657,1.84963 0.100031,0.65934 -0.04033,0.7875 -1.755291,1.60167 -1.53886,0.73062 -2.187161,0.88859 -3.716076,0.9056 -1.01859,0.0111 -2.17991,-0.08 -2.580701,-0.20296 -0.826106,-0.25344 -0.97088,0.0826 -0.315246,0.73197 0.827624,0.81955 4.185754,1.29347 6.391375,0.90199 z m 51.806392,-0.76841 c 0.871757,-0.28212 1.783554,-0.759 2.026222,-1.05969 l 0.441201,-0.54672 0.08814,0.57982 c 0.04849,0.31892 0.213619,0.62041 0.366979,0.66996 0.436546,0.14108 2.778078,-1.535 2.582265,-1.84838 -0.09736,-0.15577 -0.04969,-0.20321 0.107512,-0.10708 0.362026,0.22131 1.646129,-1.3082 1.642939,-1.95695 -4.1e-4,-0.27129 0.11451,-0.5663 0.25741,-0.65557 0.16011,-0.10003 0.20178,0.13528 0.10863,0.61323 -0.28278,1.45064 0.40591,1.23853 2.15388,-0.66348 0.92177,-1.00297 1.68226,-2.06175 1.68999,-2.35283 0.007,-0.29109 0.13573,-0.70843 0.28446,-0.92744 0.22485,-0.33108 0.26374,-0.30897 0.23071,0.13117 -0.11722,1.56232 0.28339,1.56523 1.86172,0.0134 2.39169,-2.3514 4.56875,-3.04031 7.04261,-2.22855 1.09836,0.36041 1.55507,0.0906 1.55303,-0.32675 -7.6e-4,-0.13997 -0.20996,-0.32658 -0.46504,-0.41472 -0.2551,-0.0881 -0.44533,-0.23206 -1.23246,-0.57868 -0.7871,-0.34661 -2.03921,-0.74258 -2.78245,-0.87994 -1.43511,-0.26522 -2.02348,-0.21118 -6.44052,0.59138 -1.89255,0.34389 -2.41587,0.71359 -1.38428,0.97798 0.84255,0.21594 0.61931,0.52138 -0.49429,0.6763 -1.21848,0.16951 -4.67475,1.82491 -4.600541,2.20344 0.02854,0.14537 0.327125,0.34044 0.663592,0.43341 0.336468,0.0928 0.456466,0.1817 0.26665,0.19714 -0.766069,0.0622 -2.650532,1.12127 -3.752083,2.10848 -0.964613,0.86449 -1.112288,1.11531 -0.844656,1.43461 0.456178,0.54422 -0.402412,1.30277 -2.63574,2.3286 -1.882292,0.8646 -4.04486,1.10068 -4.644374,0.507 -0.252079,-0.24966 -0.449938,-0.18023 -0.911258,0.31971 -0.324095,0.35124 -0.395514,0.49276 -0.158708,0.31449 0.343905,-0.25892 0.459197,-0.25053 0.572985,0.0417 0.177783,0.45665 2.169286,0.96395 3.680955,0.93768 0.626738,-0.0116 1.852776,-0.25063 2.724533,-0.53278 z m 43.522838,-0.33229 c 1.12503,-0.37233 1.92464,-0.70771 2.96694,-1.24436 0.70981,-0.36546 0.88707,-0.28048 0.3195,0.15319 -1.02664,0.78441 0.49276,0.45544 1.81688,-0.39338 l 1.24145,-0.79585 1.18032,0.89185 c 2.22634,1.68222 6.19124,1.94289 9.93404,0.65312 2.11176,-0.72772 2.98561,-0.8456 2.10765,-0.28432 -0.31434,0.20094 -0.28754,0.24722 0.14114,0.24368 0.80165,-0.007 2.55516,-0.89797 3.33709,-1.69642 0.52577,-0.53683 0.68731,-0.60242 0.66018,-0.26801 -0.10126,1.24814 1.75431,0.15156 3.51394,-2.0766 1.07898,-1.36628 1.21725,-1.45797 1.71426,-1.13674 0.46105,0.29798 0.62386,0.28291 1.1064,-0.10225 0.31118,-0.24851 0.80737,-0.94168 1.10267,-1.54038 0.67378,-1.36617 3.25073,-3.61231 4.67178,-4.07206 1.49501,-0.57976 9.12669,0.33833 3.0426,-1.01426 -1.82714,-0.40555 -1.96806,-0.78147 -5.01395,-0.45941 -1.6228,0.18178 -6.7714,0.91616 -8.73319,1.36102 -3.63518,0.35479 -1.35278,-1.35215 -6.35586,-1.26164 -2.82131,0.0509 -3.72084,0.21935 -5.77994,0.6588 -0.83791,0.16607 -1.79106,0.36038 -2.11814,0.43179 -0.71306,0.15566 -0.81005,1.09765 -0.12631,1.22678 0.27816,0.0526 -0.0644,0.28727 -0.85703,0.58711 -2.75984,1.04412 -3.82878,1.57803 -3.82715,1.91155 0.002,0.18969 0.21024,0.38436 0.46515,0.43258 0.27944,0.0529 -0.32254,0.46908 -1.51625,1.04825 -2.78364,1.3506 -4.07885,2.66309 -3.02228,3.06261 0.46909,0.17737 -0.41923,0.71019 -3.07174,1.84241 -2.89433,1.23547 -5.82365,1.33291 -7.94332,0.26422 -0.60208,-0.30355 -0.74957,-0.29732 -1.02969,0.0436 -0.40236,0.48967 -0.40598,0.48613 1.21296,1.18677 1.73204,0.74961 7.01746,0.95629 8.85991,0.34647 z m 8.73267,-1.81862 c -0.97752,-0.2206 -1.31549,-0.4091 -1.21414,-0.67716 0.0773,-0.20429 0.14788,-0.57012 0.15691,-0.81293 0.0151,-0.40529 0.0314,-0.40596 0.19838,-0.009 0.29533,0.7028 1.64798,0.0371 3.47001,-1.70768 0.87827,-0.84106 1.65458,-1.52947 1.72515,-1.52982 0.0706,-3.3e-4 0.12946,0.23751 0.13089,0.52854 5.9e-4,0.29104 0.12,0.5286 0.2635,0.52789 0.14352,-8.2e-4 1.4182,-1.07518 2.83264,-2.38771 3.31632,-3.0774 4.73218,-3.76169 6.893,-3.86113 1.36994,-0.063 2.43884,0.29237 1.69358,0.56266 -0.45375,0.16455 -0.41103,0.74803 0.0912,1.2453 0.37982,0.37614 0.36198,0.41453 -0.19637,0.42255 -1.46045,0.02 -4.95247,2.17916 -4.46566,2.75994 0.19139,0.22833 -0.21965,0.60485 -1.49889,1.37304 -1.68162,1.00982 -2.43033,1.98775 -1.51842,1.98329 0.88334,-0.004 0.3529,0.48663 -1.10009,1.01823 -0.83525,0.30558 -1.75653,0.60845 -2.04726,0.67305 -1.10277,0.24499 -4.11316,0.18402 -5.41436,-0.10963 z m 10.40169,-4.32278 c 0.44571,-0.32926 0.40875,-0.40984 -0.54471,-1.18797 -1.15135,-0.93961 -1.48405,-1.01086 -1.96833,-0.42151 -0.28153,0.34262 -0.24476,0.47428 0.22309,0.79857 0.30812,0.21356 0.73701,0.56339 0.95308,0.77737 0.48411,0.4794 0.72517,0.48544 1.33687,0.0336 z m -36.09605,6.32683 c 0.63825,-0.12861 1.99945,-0.6575 3.02491,-1.1753 1.37659,-0.69513 1.93728,-0.86275 2.14264,-0.64062 0.20155,0.21804 0.17553,0.24305 -0.0945,0.0908 -0.24974,-0.14085 -0.30987,-0.10973 -0.18236,0.0944 0.10466,0.16749 0.33471,0.30383 0.51126,0.30297 0.5499,-0.003 2.33144,-1.64992 2.71062,-2.50628 l 0.36134,-0.81607 -0.0626,0.79406 c -0.052,0.65858 0.045,0.80875 0.56829,0.88014 0.47551,0.0649 1.01744,-0.29627 2.19978,-1.46599 0.86287,-0.85363 1.66834,-1.79067 1.78994,-2.08231 0.1966,-0.47154 0.22335,-0.45142 0.24136,0.18164 0.0105,0.39156 0.13628,0.78283 0.27812,0.86955 0.4149,0.25362 1.51838,-0.62545 2.52611,-2.01245 1.88065,-2.58839 5.96169,-4.29915 9.09096,-3.81086 1.30106,0.20299 1.59214,0.18168 1.59069,-0.11652 -0.003,-0.46949 -1.53994,-1.10025 -3.3957,-1.39296 -2.49572,-0.39369 -10.7532,0.62322 -12.05359,1.48437 -0.37829,0.25052 -0.90276,0.86255 -0.90331,0.74545 -5.8e-4,-0.11711 -0.35299,-0.88782 -1.04524,-1.0981 -0.90303,-0.27433 -2.66384,-1.02811 -5.63578,-0.99114 -4.50885,0.056 -5.27905,0.8601 -5.27618,1.44818 5.8e-4,0.29058 -0.20204,0.34546 -0.82808,0.22344 -0.64216,-0.12518 -0.80166,-0.078 -0.70478,0.2085 0.0689,0.20364 0.47293,0.44378 0.89794,0.53363 0.76691,0.16213 0.76576,0.16373 -0.15308,0.21292 -0.50919,0.0274 -1.81715,0.38406 -2.90657,0.79285 -1.52086,0.57067 -1.98017,0.86093 -1.97827,1.25011 7.1e-4,0.35385 0.24232,0.55048 0.79693,0.6513 l 0.79447,0.14441 -1.01048,0.20558 c -1.10018,0.22382 -4.16437,1.83172 -4.67501,2.45317 -0.2386,0.29038 -0.24215,0.47655 -0.0143,0.74847 0.37694,0.44971 -0.25418,0.90553 -2.34988,1.69718 -2.29497,0.86691 -4.16368,1.0109 -5.33254,0.4109 -0.883021,-0.45325 -1.015024,-0.46157 -1.385522,-0.0874 -0.370511,0.37415 -0.288272,0.46855 0.863092,0.99091 2.60463,1.18167 6.6782,1.00957 9.56828,-0.40423 0.79847,-0.39058 1.57057,-0.76363 1.71577,-0.82894 0.14519,-0.0654 0.0406,0.13535 -0.23229,0.44594 -0.45031,0.51246 -0.45585,0.58003 -0.0599,0.72977 0.6699,0.25331 4.33686,-2.82941 4.40725,-3.70505 0.0136,-0.17008 0.107,-0.0208 0.20737,0.3317 0.10033,0.35253 0.31346,0.68391 0.47356,0.7364 0.3649,0.11967 2.17863,-1.79165 2.77731,-2.92674 0.4422,-0.83846 0.44896,-0.84092 0.46318,-0.16742 0.0193,0.89277 0.23567,1.07799 0.86378,0.73789 0.32934,-0.17835 0.45295,-0.4337 0.34461,-0.71193 -0.0929,-0.23862 -0.0957,-0.36125 -0.006,-0.27254 0.0896,0.0888 0.69064,-0.40845 1.33565,-1.10482 1.99253,-2.15114 4.69639,-3.03692 8.06945,-2.64344 0.86623,0.10106 0.71036,0.6333 -0.24375,0.83223 -0.39047,0.0814 -1.40586,0.46106 -2.25638,0.84371 -1.22459,0.55093 -1.51929,0.79746 -1.41599,1.18465 0.0967,0.36245 -0.1513,0.64499 -0.95841,1.092 -2.05333,1.13717 -2.83896,1.85568 -2.65436,2.42762 0.11157,0.34566 0.003,0.6575 -0.31538,0.90959 -2.01436,1.5927 -7.42137,3.03205 -8.71067,2.31879 -0.4857,-0.2687 -1.4223,0.0216 -1.42026,0.44014 0.004,0.69724 5.05476,1.03798 7.64645,0.51583 z m -38.197542,0.11898 c 0.584188,-0.1944 1.371709,-0.55846 1.75004,-0.80899 0.608848,-0.40321 0.70604,-0.40894 0.845822,-0.0499 0.08692,0.22307 0.390651,0.40446 0.675092,0.40308 0.666796,-0.003 2.193953,-1.29522 1.964705,-1.66213 -0.09634,-0.15427 -0.05565,-0.20739 0.09048,-0.11804 0.400754,0.24498 1.759877,-1.30732 1.570497,-1.79369 -0.09454,-0.24276 -0.01934,-0.41259 0.183064,-0.41356 0.188877,-0.002 0.335281,0.26624 0.325328,0.59371 -0.01291,0.42599 0.132465,0.59467 0.511059,0.59282 0.630838,-0.003 2.98995,-3.38722 3.00748,-4.31424 0.01398,-0.73786 0.428946,-0.78418 0.619671,-0.0691 0.217142,0.81406 0.656797,0.62912 1.235903,-0.51988 0.908547,-1.8026 3.221038,-3.1988 5.341429,-3.2249 1.053622,-0.0133 1.096842,-0.041 0.617452,-0.39991 -0.283526,-0.21227 -0.879698,-0.38578 -1.324835,-0.38558 -3.753921,-0.66261 -6.075757,0.0797 -9.404486,0.79901 -0.654162,0.14123 -1.263731,0.59761 -1.013549,0.61234 1.039474,0.061 1.12547,0.53871 -0.03667,1.05953 -1.532821,0.68697 -3.694008,2.08704 -3.692523,2.39206 6.47e-4,0.13035 0.328607,0.23847 0.728801,0.24026 0.650448,0.004 0.592826,0.0733 -0.543305,0.66391 -2.36744,1.23064 -4.193476,2.99314 -3.378104,3.2605 0.621346,0.20376 0.263114,0.58914 -1.198444,1.28934 -1.685064,0.80727 -3.694705,1.11338 -4.50297,0.68588 -0.428239,-0.22651 -0.626138,-0.18265 -0.985514,0.21838 -0.427129,0.47664 -0.418626,0.51857 0.169226,0.83593 0.876404,0.47316 5.137829,0.54811 6.444274,0.11332 z m 87.909762,-1.52835 c 0.77056,-0.22162 1.62446,-0.52392 1.89756,-0.67181 0.63706,-0.34496 1.13858,-0.34841 0.9295,-0.006 -0.25637,0.41939 0.63967,0.30513 1.46277,-0.18653 0.41217,-0.24619 0.81742,-0.72444 0.90057,-1.06276 0.0832,-0.33831 0.25685,-0.61564 0.38597,-0.61626 0.12912,-6.5e-4 0.17367,0.23727 0.0989,0.5287 -0.10909,0.42557 -0.005,0.52919 0.52636,0.52659 0.43887,-0.002 1.14718,-0.47402 2.10058,-1.39936 1.8076,-1.75442 2.56979,-2.87547 2.56541,-3.77322 -0.002,-0.40087 0.11047,-0.63273 0.26194,-0.54014 0.14596,0.0892 0.2671,0.51239 0.26918,0.94036 0.002,0.42796 0.12672,0.77751 0.27695,0.77679 0.15023,-8.8e-4 1.14034,-0.88852 2.20025,-1.97284 1.40531,-1.43766 2.23421,-2.06513 3.06119,-2.31732 0.62375,-0.19021 0.99078,-0.39281 0.81562,-0.45025 -0.17516,-0.0575 -0.53412,-0.49429 -0.98893,-0.30294 -0.64196,0.27016 -1.40484,-0.47037 -2.73155,-0.55963 -0.57607,-0.0388 -2.77382,0.24827 -3.64775,0.32169 -1.09968,0.0108 -1.57184,0.38839 -1.13679,0.9074 0.29775,0.35521 0.26936,0.41573 -0.19619,0.41799 -0.29939,6.6e-4 -0.87486,0.13018 -1.27882,0.28605 -0.58225,0.22463 -0.65431,0.33237 -0.34762,0.51985 0.29994,0.18335 0.31618,0.30785 0.0725,0.55413 -0.24389,0.24628 -0.45104,0.228 -0.92205,-0.0815 -0.56209,-0.36926 -0.67171,-0.34964 -1.46635,0.26265 -0.86692,0.66796 -1.1344,1.38365 -0.52449,1.40339 0.18191,0.005 -0.26301,0.32279 -0.98876,0.70422 -0.72575,0.38145 -1.70505,0.99015 -2.17622,1.35266 -1.01216,0.77875 -1.1635,1.51434 -0.25845,1.25611 0.57479,-0.16399 0.57266,-0.15152 -0.0643,0.37632 -1.35735,1.12484 -3.40736,1.72471 -6.10348,1.78595 -1.39703,0.0318 -2.75901,0.18163 -3.02666,0.33313 -1.36784,0.77428 5.6446,1.37397 8.0333,0.687 z M 57.020526,415.5379 c 0.401135,-0.30724 0.368064,-0.41644 -0.371033,-1.22515 -0.749786,-0.82043 -0.843982,-0.85498 -1.240259,-0.45479 -0.396288,0.40018 -0.368109,0.49323 0.371021,1.22516 0.679058,0.67246 0.866413,0.74115 1.240271,0.45478 z m 51.357404,-0.67752 c 0.41457,-0.46262 0.38945,-0.54261 -0.4457,-1.41949 -0.76479,-0.80302 -0.94754,-0.88304 -1.34531,-0.58921 -0.42975,0.3175 -0.41063,0.41107 0.28822,1.41023 0.41166,0.58859 0.81938,1.07432 0.90597,1.07944 0.0867,0.006 0.35519,-0.21134 0.59682,-0.48097 z m -38.318338,0.39859 c 0.148808,-0.24344 -1.18422,-2.0986 -1.506824,-2.09703 -0.425037,0.002 -0.844721,0.86231 -0.604504,1.23906 0.3396,0.53258 1.918115,1.17402 2.111328,0.85797 z m 11.941958,-0.46602 c 0.09918,-0.26228 -0.118737,-0.68456 -0.578829,-1.12166 -0.405838,-0.38553 -0.654475,-0.55256 -0.552515,-0.37117 0.10195,0.18141 0.05932,0.33045 -0.09478,0.33119 -0.441577,0.002 -0.326096,0.48253 0.254141,1.05711 0.641962,0.63571 0.766091,0.64908 0.971999,0.10453 z m 40.51056,-0.37359 c 0.195,-0.23845 0.0986,-0.54623 -0.34168,-1.09186 l -0.61324,-0.7598 -0.31093,0.5879 c -0.25597,0.48395 -0.22936,0.67717 0.15049,1.0928 0.54037,0.59123 0.7459,0.62276 1.11536,0.17096 z m 16.19464,-0.27419 c 0.32463,-0.20924 0.17306,-0.46677 -0.84451,-1.4348 l -1.24017,-1.17979 -0.41614,0.64192 c -0.51195,0.78977 -0.51756,0.92566 -0.0381,0.92332 0.20711,-0.002 0.73176,0.29409 1.1659,0.65576 0.89831,0.74842 0.8459,0.73339 1.37311,0.39359 z m 32.22301,-0.74305 c 0.40018,-0.40412 0.40388,-0.74282 0.009,-0.74087 -0.16817,8.6e-4 -0.72279,-0.31337 -1.23249,-0.69821 -0.88883,-0.67109 -0.94127,-0.6796 -1.28276,-0.20774 -0.52329,0.72304 -0.45872,0.85644 0.69636,1.43865 1.22429,0.61704 1.38732,0.63579 1.81077,0.20817 z m -75.16061,0.35432 c 0.175577,-0.22851 0.06245,-0.60787 -0.363192,-1.21722 l -0.61824,-0.88523 -0.310454,0.69026 c -0.261293,0.58099 -0.23406,0.77384 0.172009,1.21816 0.561101,0.61395 0.769502,0.65007 1.119877,0.19403 z"
       id="path10"
       sodipodi:nodetypes="ssssscssssssssssssssssssssssscsssscsssssssssssssssssssssssssscccscsssssssssssssssssssssssssscssccsscsssssssscssssssssssssssssssssscsssssscssscssssssssssssssssssssssssccsscssssscsssssssscssssssssssssssscsssssssssssssssssssssscsssssssssssssssssssssssssssssssssssssssssssscscssssssssssssccscssssssssssssssscssssssscsssssscssssscsssscsssssssssssssscssssscsssssssssssssscss"
       inkscape:export-filename="bd4-r.svg"
       inkscape:export-xdpi="96"
       inkscape:export-ydpi="96" /></g></svg>
