<?xml version="1.0" encoding="UTF-8" standalone="no"?>
<!-- Created with Inkscape (http://www.inkscape.org/) -->

<svg
   width="152.67899mm"
   height="14.52476mm"
   viewBox="0 0 152.67899 14.52476"
   version="1.1"
   id="svg1"
   xml:space="preserve"
   xmlns:inkscape="http://www.inkscape.org/namespaces/inkscape"
   xmlns:sodipodi="http://sodipodi.sourceforge.net/DTD/sodipodi-0.dtd"
   xmlns="http://www.w3.org/2000/svg"
   xmlns:svg="http://www.w3.org/2000/svg"><sodipodi:namedview
     id="namedview1"
     pagecolor="#ffffff"
     bordercolor="#000000"
     borderopacity="0.25"
     inkscape:showpageshadow="2"
     inkscape:pageopacity="0.0"
     inkscape:pagecheckerboard="0"
     inkscape:deskcolor="#d1d1d1"
     inkscape:document-units="mm"
     showguides="true"><sodipodi:guide
       position="11.726235,14.114743"
       orientation="0,-1"
       id="guide11"
       inkscape:locked="false" /><sodipodi:guide
       position="9.6682603,0.64436298"
       orientation="0,-1"
       id="guide12"
       inkscape:locked="false" /><inkscape:page
       x="0"
       y="0"
       width="152.67899"
       height="14.52476"
       id="page2"
       margin="0"
       bleed="0" /></sodipodi:namedview><defs
     id="defs1" /><g
     inkscape:label="Layer 1"
     inkscape:groupmode="layer"
     id="layer1"
     transform="translate(-34.484665,-406.32075)"><path
       style="fill:#b7c6c3;fill-opacity:1"
       d="m 68.365162,420.60832 c 0.94841,-0.24972 2.09348,-0.71959 2.54457,-1.04413 0.8166,-0.58752 0.82177,-0.58779 1.18354,-0.0619 0.35475,0.51568 0.3852,0.51683 1.28705,0.0478 0.54072,-0.28128 0.88635,-0.64123 0.83361,-0.86815 -0.0495,-0.21322 -3.5e-4,-0.29853 0.1099,-0.1896 0.36152,0.35799 1.1644,-0.66661 1.17744,-1.50258 0.0117,-0.75121 0.0326,-0.77018 0.25331,-0.22921 0.1333,0.3268 0.39437,0.52983 0.58558,0.45536 0.51215,-0.19938 1.83033,-2.52694 1.66769,-2.94466 -0.0773,-0.19852 -0.0577,-0.56972 0.0437,-0.82486 0.13745,-0.34619 0.21984,-0.22985 0.32466,0.45843 0.23509,1.54367 0.91821,1.33963 1.86389,-0.55677 1.1517,-2.3095 2.93025,-4.0636 4.64627,-4.58234 0.75147,-0.22717 1.64296,-0.35495 1.98108,-0.28396 1.93329,-0.83569 -6.27382,-1.77767 -8.10448,-0.0999 -0.13878,0.12721 -0.44223,0.23451 -0.67695,0.23566 -0.75493,0.003 -3.16514,1.32638 -3.16314,1.73592 0.001,0.21791 0.121,0.39564 0.26653,0.39493 0.57993,-0.003 0.21663,0.43994 -0.61003,0.74344 -1.0301,0.37819 -3.14404,2.13248 -2.94792,2.44639 0.0744,0.11928 0.403,0.15897 0.72993,0.0882 0.33802,-0.0731 0.1239,0.13835 -0.49641,0.49031 -1.85461,1.05227 -2.7764,1.92659 -2.57541,2.44278 0.099,0.25406 0.34277,0.39849 0.5419,0.32095 0.19912,-0.0775 0.36252,-0.0435 0.3631,0.0757 5.9e-4,0.11917 -0.74123,0.59581 -1.64848,1.05919 -2.01683,1.0301 -4.85094,1.45199 -5.33668,0.79447 -0.2531,-0.34258 -0.40514,-0.35539 -0.91842,-0.0776 l -0.61511,0.33309 0.7613,0.52427 c 0.61991,0.42691 3.03199,0.71647 3.63889,0.62183 0.0849,-0.0132 1.34069,0.2466 2.2891,-0.003 z m -12.28085,-0.33073 c 0.90524,-0.53266 1.08129,-0.56785 1.05732,-0.2113 -0.05,0.74486 1.34478,0.6794 2.37094,-0.1112 0.50141,-0.38636 0.8307,-0.8316 0.73193,-0.98966 -0.10739,-0.17189 -0.0564,-0.21209 0.12686,-0.10002 0.19258,0.11773 0.30542,-0.009 0.30379,-0.34185 -0.004,-0.68991 0.48939,-1.02942 0.32704,-0.15712 -0.0985,0.52916 -0.0146,0.65353 0.43917,0.6513 0.74279,-0.003 3.19326,-2.40077 3.18974,-3.12036 -0.001,-0.30588 0.0838,-0.77469 0.18969,-1.04177 0.15013,-0.3789 0.22326,-0.28229 0.33289,0.43977 0.20912,1.37754 0.78154,1.14729 1.83904,-0.73975 1.76688,-3.15294 3.6063,-4.45709 6.58885,-4.67146 1.43917,-0.10341 1.6144,-0.46657 0.47474,-0.98376 -2.26908,-1.02973 -11.32264,0.42246 -11.51933,1.84769 -0.0635,0.46053 0.0544,0.59744 0.53219,0.61766 0.33762,0.0143 0.10482,0.1289 -0.51732,0.25465 -1.10261,0.22289 -2.22065,0.85725 -3.42234,1.94173 -0.7476,0.67471 -0.75051,0.97261 -0.01,0.96898 0.40485,-0.002 0.18513,0.2002 -0.72434,0.66653 -0.71801,0.36816 -1.59086,0.89298 -1.93965,1.16628 -0.78969,0.61871 -0.59875,1.37979 0.29545,1.17766 0.69501,-0.15712 -1.24276,1.0787 -2.68745,1.71392 -1.22204,0.53731 -3.80931,0.50984 -4.67233,-0.0496 -0.62393,-0.40445 -0.70043,-0.40103 -1.1978,0.0535 -0.52237,0.47741 -0.49854,0.49376 1.41619,0.97205 1.07114,0.26754 2.72166,0.53121 3.66782,0.58587 1.45558,0.0841 1.88743,10e-4 2.80637,-0.53967 z m -14.79689,0.40749 c 0.75381,-0.13379 1.86229,-0.41539 2.4633,-0.62574 0.9513,-0.33297 1.07399,-0.33286 0.94786,5.6e-4 -0.22417,0.59282 0.5044,0.70906 1.42486,0.22735 1.24142,-0.64966 2.90748,-2.26234 2.90479,-2.8117 -9.9e-4,-0.26554 0.10526,-0.55002 0.2368,-0.63221 0.13156,-0.0822 0.17805,0.0891 0.10329,0.38075 -0.10702,0.41761 -0.005,0.52957 0.4768,0.52721 0.65215,-0.003 2.76849,-2.06368 3.30423,-3.21706 0.16274,-0.35038 0.42841,-0.93535 0.59036,-1.29995 0.17777,-0.40023 0.24489,-0.45299 0.16939,-0.13312 -0.0687,0.29137 -0.0152,0.7031 0.11922,0.91495 0.20806,0.32805 0.32892,0.30786 0.81521,-0.13629 0.31401,-0.28679 0.79142,-0.95871 1.06091,-1.49317 1.12766,-2.23641 4.22279,-3.8089 6.2961,-3.19875 1.40551,0.41364 1.64791,0.14721 0.70122,-0.25977 -0.6136,-0.26379 -0.94245,-0.30745 -1.21864,-0.41822 -2.8373,-1.13806 -5.4814,-0.82233 -5.45086,-0.29765 0.0143,0.24471 -0.3157,0.36778 -0.4409,0.57254 -0.18702,0.30593 -0.0696,0.24686 -0.92853,-0.006 -1.408,-0.41435 -2.22591,-0.38293 -3.50085,0.13445 -1.20848,0.49039 -1.24664,0.95022 -0.099,1.19283 0.76545,0.1618 0.76401,0.16379 -0.1531,0.2089 -1.19843,0.0589 -4.32491,1.62993 -4.43737,2.22964 -0.0649,0.34589 0.099,0.46366 0.66084,0.47492 0.71576,0.0144 0.7061,0.0303 -0.23041,0.3797 -0.53763,0.20056 -1.64595,0.87453 -2.46294,1.49766 -1.26841,0.9674 -1.46955,1.23767 -1.37666,1.84963 0.10003,0.65934 -0.0403,0.7875 -1.75529,1.60167 -1.53886,0.73062 -2.18716,0.88859 -3.71608,0.9056 -1.01859,0.0111 -2.17991,-0.08 -2.5807,-0.20296 -0.8261,-0.25344 -0.97088,0.0826 -0.31524,0.73197 0.82762,0.81955 4.18575,1.29347 6.39137,0.90199 z m 51.80639,-0.76841 c 0.87176,-0.28212 1.78355,-0.759 2.02622,-1.05969 l 0.4412,-0.54672 0.0881,0.57982 c 0.0485,0.31892 0.21362,0.62041 0.36698,0.66996 0.43655,0.14108 2.77808,-1.535 2.58227,-1.84838 -0.0974,-0.15577 -0.0497,-0.20321 0.10751,-0.10708 0.36202,0.22131 1.646128,-1.3082 1.642938,-1.95695 -4.1e-4,-0.27129 0.11451,-0.5663 0.25741,-0.65557 0.16011,-0.10003 0.20178,0.13528 0.10863,0.61323 -0.28278,1.45064 0.40591,1.23853 2.15388,-0.66348 0.92177,-1.00297 1.68226,-2.06175 1.68999,-2.35283 0.007,-0.29109 0.13573,-0.70843 0.28446,-0.92744 0.22485,-0.33108 0.26374,-0.30897 0.23071,0.13117 -0.11722,1.56232 0.28339,1.56523 1.86172,0.0134 2.39169,-2.3514 4.56875,-3.04031 7.04261,-2.22855 1.09836,0.36041 1.55507,0.0906 1.55303,-0.32675 -7.6e-4,-0.13997 -0.20996,-0.32658 -0.46504,-0.41472 -0.2551,-0.0881 -0.44533,-0.23206 -1.23246,-0.57868 -0.7871,-0.34661 -2.03921,-0.74258 -2.78245,-0.87994 -1.43511,-0.26522 -2.02348,-0.21118 -6.44052,0.59138 -1.89255,0.34389 -2.41587,0.71359 -1.38428,0.97798 0.84255,0.21594 0.61931,0.52138 -0.49429,0.6763 -1.21848,0.16951 -4.674748,1.82491 -4.600538,2.20344 0.0285,0.14537 0.32712,0.34044 0.66359,0.43341 0.33647,0.0928 0.45646,0.1817 0.26665,0.19714 -0.76607,0.0622 -2.65053,1.12127 -3.75209,2.10848 -0.96461,0.86449 -1.11228,1.11531 -0.84465,1.43461 0.45618,0.54422 -0.40241,1.30277 -2.63574,2.3286 -1.88229,0.8646 -4.04486,1.10068 -4.64438,0.507 -0.25207,-0.24966 -0.44993,-0.18023 -0.91125,0.31971 -0.3241,0.35124 -0.39552,0.49276 -0.15871,0.31449 0.3439,-0.25892 0.4592,-0.25053 0.57298,0.0417 0.17779,0.45665 2.16929,0.96395 3.68096,0.93768 0.62674,-0.0116 1.85277,-0.25063 2.72453,-0.53278 z m 43.522838,-0.33229 c 1.12503,-0.37233 1.92464,-0.70771 2.96694,-1.24436 0.70981,-0.36546 0.88707,-0.28048 0.3195,0.15319 -1.02664,0.78441 0.49276,0.45544 1.81688,-0.39338 l 1.24145,-0.79585 1.18032,0.89185 c 2.22634,1.68222 6.19124,1.94289 9.93404,0.65312 2.11176,-0.72772 2.98561,-0.8456 2.10765,-0.28432 -0.31434,0.20094 -0.28754,0.24722 0.14114,0.24368 0.80165,-0.007 2.55516,-0.89797 3.33709,-1.69642 0.52577,-0.53683 0.68731,-0.60242 0.66018,-0.26801 -0.10126,1.24814 1.75431,0.15156 3.51394,-2.0766 1.07898,-1.36628 1.21725,-1.45797 1.71426,-1.13674 0.46105,0.29798 0.62386,0.28291 1.1064,-0.10225 0.31118,-0.24851 0.80737,-0.94168 1.10267,-1.54038 0.67378,-1.36617 3.25073,-3.61231 4.67178,-4.07206 1.49501,-0.57976 9.12669,0.33833 3.0426,-1.01426 -1.82714,-0.40555 -1.96806,-0.78147 -5.01395,-0.45941 -1.6228,0.18178 -6.7714,0.91616 -8.73319,1.36102 -3.63518,0.35479 -1.35278,-1.35215 -6.35586,-1.26164 -2.82131,0.0509 -3.72084,0.21935 -5.77994,0.6588 -0.83791,0.16607 -1.79106,0.36038 -2.11814,0.43179 -0.71306,0.15566 -0.81005,1.09765 -0.12631,1.22678 0.27816,0.0526 -0.0644,0.28727 -0.85703,0.58711 -2.75984,1.04412 -3.82878,1.57803 -3.82715,1.91155 0.002,0.18969 0.21024,0.38436 0.46515,0.43258 0.27944,0.0529 -0.32254,0.46908 -1.51625,1.04825 -2.78364,1.3506 -4.07885,2.66309 -3.02228,3.06261 0.46909,0.17737 -0.41923,0.71019 -3.07174,1.84241 -2.89433,1.23547 -5.82365,1.33291 -7.94332,0.26422 -0.60208,-0.30355 -0.74957,-0.29732 -1.02969,0.0436 -0.40236,0.48967 -0.40598,0.48613 1.21296,1.18677 1.73204,0.74961 7.01746,0.95629 8.85991,0.34647 z m 8.73267,-1.81862 c -0.97752,-0.2206 -1.31549,-0.4091 -1.21414,-0.67716 0.0773,-0.20429 0.14788,-0.57012 0.15691,-0.81293 0.0151,-0.40529 0.0314,-0.40596 0.19838,-0.009 0.29533,0.7028 1.64798,0.0371 3.47001,-1.70768 0.87827,-0.84106 1.65458,-1.52947 1.72515,-1.52982 0.0706,-3.3e-4 0.12946,0.23751 0.13089,0.52854 5.9e-4,0.29104 0.12,0.5286 0.2635,0.52789 0.14352,-8.2e-4 1.4182,-1.07518 2.83264,-2.38771 3.31632,-3.0774 4.73218,-3.76169 6.893,-3.86113 1.36994,-0.063 2.43884,0.29237 1.69358,0.56266 -0.45375,0.16455 -0.41103,0.74803 0.0912,1.2453 0.37982,0.37614 0.36198,0.41453 -0.19637,0.42255 -1.46045,0.02 -4.95247,2.17916 -4.46566,2.75994 0.19139,0.22833 -0.21965,0.60485 -1.49889,1.37304 -1.68162,1.00982 -2.43033,1.98775 -1.51842,1.98329 0.88334,-0.004 0.3529,0.48663 -1.10009,1.01823 -0.83525,0.30558 -1.75653,0.60845 -2.04726,0.67305 -1.10277,0.24499 -4.11316,0.18402 -5.41436,-0.10963 z m 10.40169,-4.32278 c 0.44571,-0.32926 0.40875,-0.40984 -0.54471,-1.18797 -1.15135,-0.93961 -1.48405,-1.01086 -1.96833,-0.42151 -0.28153,0.34262 -0.24476,0.47428 0.22309,0.79857 0.30812,0.21356 0.73701,0.56339 0.95308,0.77737 0.48411,0.4794 0.72517,0.48544 1.33687,0.0336 z m -36.09605,6.32683 c 0.63825,-0.12861 1.99945,-0.6575 3.02491,-1.1753 1.37659,-0.69513 1.93728,-0.86275 2.14264,-0.64062 0.20155,0.21804 0.17553,0.24305 -0.0945,0.0908 -0.24974,-0.14085 -0.30987,-0.10973 -0.18236,0.0944 0.10466,0.16749 0.33471,0.30383 0.51126,0.30297 0.5499,-0.003 2.33144,-1.64992 2.71062,-2.50628 l 0.36134,-0.81607 -0.0626,0.79406 c -0.052,0.65858 0.045,0.80875 0.56829,0.88014 0.47551,0.0649 1.01744,-0.29627 2.19978,-1.46599 0.86287,-0.85363 1.66834,-1.79067 1.78994,-2.08231 0.1966,-0.47154 0.22335,-0.45142 0.24136,0.18164 0.0105,0.39156 0.13628,0.78283 0.27812,0.86955 0.4149,0.25362 1.51838,-0.62545 2.52611,-2.01245 1.88065,-2.58839 5.96169,-4.29915 9.09096,-3.81086 1.30106,0.20299 1.59214,0.18168 1.59069,-0.11652 -0.003,-0.46949 -1.53994,-1.10025 -3.3957,-1.39296 -2.49572,-0.39369 -10.7532,0.62322 -12.05359,1.48437 -0.37829,0.25052 -0.90276,0.86255 -0.90331,0.74545 -5.8e-4,-0.11711 -0.35299,-0.88782 -1.04524,-1.0981 -0.90303,-0.27433 -2.66384,-1.02811 -5.63578,-0.99114 -4.50885,0.056 -5.27905,0.8601 -5.27618,1.44818 5.8e-4,0.29058 -0.20204,0.34546 -0.82808,0.22344 -0.64216,-0.12518 -0.80166,-0.078 -0.70478,0.2085 0.0689,0.20364 0.47293,0.44378 0.89794,0.53363 0.76691,0.16213 0.76576,0.16373 -0.15308,0.21292 -0.50919,0.0274 -1.81715,0.38406 -2.90657,0.79285 -1.52086,0.57067 -1.98017,0.86093 -1.97827,1.25011 7.1e-4,0.35385 0.24232,0.55048 0.79693,0.6513 l 0.79447,0.14441 -1.01048,0.20558 c -1.10018,0.22382 -4.16437,1.83172 -4.67501,2.45317 -0.2386,0.29038 -0.24215,0.47655 -0.0143,0.74847 0.37694,0.44971 -0.25418,0.90553 -2.34988,1.69718 -2.29497,0.86691 -4.16368,1.0109 -5.33254,0.4109 -0.883018,-0.45325 -1.015028,-0.46157 -1.385528,-0.0874 -0.37051,0.37415 -0.28827,0.46855 0.863098,0.99091 2.60463,1.18167 6.6782,1.00957 9.56828,-0.40423 0.79847,-0.39058 1.57057,-0.76363 1.71577,-0.82894 0.14519,-0.0654 0.0406,0.13535 -0.23229,0.44594 -0.45031,0.51246 -0.45585,0.58003 -0.0599,0.72977 0.6699,0.25331 4.33686,-2.82941 4.40725,-3.70505 0.0136,-0.17008 0.107,-0.0208 0.20737,0.3317 0.10033,0.35253 0.31346,0.68391 0.47356,0.7364 0.3649,0.11967 2.17863,-1.79165 2.77731,-2.92674 0.4422,-0.83846 0.44896,-0.84092 0.46318,-0.16742 0.0193,0.89277 0.23567,1.07799 0.86378,0.73789 0.32934,-0.17835 0.45295,-0.4337 0.34461,-0.71193 -0.0929,-0.23862 -0.0957,-0.36125 -0.006,-0.27254 0.0896,0.0888 0.69064,-0.40845 1.33565,-1.10482 1.99253,-2.15114 4.69639,-3.03692 8.06945,-2.64344 0.86623,0.10106 0.71036,0.6333 -0.24375,0.83223 -0.39047,0.0814 -1.40586,0.46106 -2.25638,0.84371 -1.22459,0.55093 -1.51929,0.79746 -1.41599,1.18465 0.0967,0.36245 -0.1513,0.64499 -0.95841,1.092 -2.05333,1.13717 -2.83896,1.85568 -2.65436,2.42762 0.11157,0.34566 0.003,0.6575 -0.31538,0.90959 -2.01436,1.5927 -7.42137,3.03205 -8.71067,2.31879 -0.4857,-0.2687 -1.4223,0.0216 -1.42026,0.44014 0.004,0.69724 5.05476,1.03798 7.64645,0.51583 z m -38.197548,0.11898 c 0.58419,-0.1944 1.37171,-0.55846 1.75004,-0.80899 0.60885,-0.40321 0.70604,-0.40894 0.84583,-0.0499 0.0869,0.22307 0.39065,0.40446 0.67509,0.40308 0.66679,-0.003 2.19395,-1.29522 1.9647,-1.66213 -0.0963,-0.15427 -0.0556,-0.20739 0.0905,-0.11804 0.40076,0.24498 1.75988,-1.30732 1.5705,-1.79369 -0.0945,-0.24276 -0.0193,-0.41259 0.18306,-0.41356 0.18888,-0.002 0.33529,0.26624 0.32533,0.59371 -0.0129,0.42599 0.13247,0.59467 0.51106,0.59282 0.63084,-0.003 2.98995,-3.38722 3.00748,-4.31424 0.014,-0.73786 0.42895,-0.78418 0.61967,-0.0691 0.21714,0.81406 0.6568,0.62912 1.23591,-0.51988 0.90854,-1.8026 3.22103,-3.1988 5.34142,-3.2249 1.053628,-0.0133 1.096848,-0.041 0.617458,-0.39991 -0.283528,-0.21227 -0.879698,-0.38578 -1.324838,-0.38558 -3.75392,-0.66261 -6.07576,0.0797 -9.40448,0.79901 -0.65417,0.14123 -1.26374,0.59761 -1.01355,0.61234 1.03947,0.061 1.12547,0.53871 -0.0367,1.05953 -1.53282,0.68697 -3.69401,2.08704 -3.69253,2.39206 6.5e-4,0.13035 0.32861,0.23847 0.7288,0.24026 0.65045,0.004 0.59283,0.0733 -0.5433,0.66391 -2.36744,1.23064 -4.19348,2.99314 -3.3781,3.2605 0.62134,0.20376 0.26311,0.58914 -1.19845,1.28934 -1.68506,0.80727 -3.6947,1.11338 -4.50297,0.68588 -0.42824,-0.22651 -0.62614,-0.18265 -0.98551,0.21838 -0.42713,0.47664 -0.41863,0.51857 0.16922,0.83593 0.87641,0.47316 5.13783,0.54811 6.44428,0.11332 z m 87.909768,-1.52835 c 0.77056,-0.22162 1.62446,-0.52392 1.89756,-0.67181 0.63706,-0.34496 1.13858,-0.34841 0.9295,-0.006 -0.25637,0.41939 0.63967,0.30513 1.46277,-0.18653 0.41217,-0.24619 0.81742,-0.72444 0.90057,-1.06276 0.0832,-0.33831 0.25685,-0.61564 0.38597,-0.61626 0.12912,-6.5e-4 0.17367,0.23727 0.0989,0.5287 -0.10909,0.42557 -0.005,0.52919 0.52636,0.52659 0.43887,-0.002 1.14718,-0.47402 2.10058,-1.39936 1.8076,-1.75442 2.56979,-2.87547 2.56541,-3.77322 -0.002,-0.40087 0.11047,-0.63273 0.26194,-0.54014 0.14596,0.0892 0.2671,0.51239 0.26918,0.94036 0.002,0.42796 0.12672,0.77751 0.27695,0.77679 0.15023,-8.8e-4 1.14034,-0.88852 2.20025,-1.97284 1.40531,-1.43766 2.23421,-2.06513 3.06119,-2.31732 0.62375,-0.19021 0.99078,-0.39281 0.81562,-0.45025 -0.17516,-0.0575 -0.53412,-0.49429 -0.98893,-0.30294 -0.64196,0.27016 -1.40484,-0.47037 -2.73155,-0.55963 -0.57607,-0.0388 -2.77382,0.24827 -3.64775,0.32169 -1.09968,0.0108 -1.57184,0.38839 -1.13679,0.9074 0.29775,0.35521 0.26936,0.41573 -0.19619,0.41799 -0.29939,6.6e-4 -0.87486,0.13018 -1.27882,0.28605 -0.58225,0.22463 -0.65431,0.33237 -0.34762,0.51985 0.29994,0.18335 0.31618,0.30785 0.0725,0.55413 -0.24389,0.24628 -0.45104,0.228 -0.92205,-0.0815 -0.56209,-0.36926 -0.67171,-0.34964 -1.46635,0.26265 -0.86692,0.66796 -1.1344,1.38365 -0.52449,1.40339 0.18191,0.005 -0.26301,0.32279 -0.98876,0.70422 -0.72575,0.38145 -1.70505,0.99015 -2.17622,1.35266 -1.01216,0.77875 -1.1635,1.51434 -0.25845,1.25611 0.57479,-0.16399 0.57266,-0.15152 -0.0643,0.37632 -1.35735,1.12484 -3.40736,1.72471 -6.10348,1.78595 -1.39703,0.0318 -2.75901,0.18163 -3.02666,0.33313 -1.36784,0.77428 5.6446,1.37397 8.0333,0.687 z M 57.020532,415.5379 c 0.40114,-0.30724 0.36807,-0.41644 -0.37103,-1.22515 -0.74979,-0.82043 -0.84398,-0.85498 -1.24026,-0.45479 -0.39629,0.40018 -0.36811,0.49323 0.37102,1.22516 0.67906,0.67246 0.86641,0.74115 1.24027,0.45478 z m 51.357408,-0.67752 c 0.41457,-0.46262 0.38945,-0.54261 -0.4457,-1.41949 -0.76479,-0.80302 -0.94754,-0.88304 -1.34531,-0.58921 -0.42975,0.3175 -0.41063,0.41107 0.28822,1.41023 0.41166,0.58859 0.81938,1.07432 0.90597,1.07944 0.0867,0.006 0.35519,-0.21134 0.59682,-0.48097 z m -38.318338,0.39859 c 0.14881,-0.24344 -1.18422,-2.0986 -1.50683,-2.09703 -0.42503,0.002 -0.84472,0.86231 -0.6045,1.23906 0.3396,0.53258 1.91812,1.17402 2.11133,0.85797 z m 11.94196,-0.46602 c 0.0992,-0.26228 -0.11874,-0.68456 -0.57883,-1.12166 -0.40584,-0.38553 -0.65448,-0.55256 -0.55252,-0.37117 0.10195,0.18141 0.0593,0.33045 -0.0948,0.33119 -0.44157,0.002 -0.32609,0.48253 0.25414,1.05711 0.64197,0.63571 0.76609,0.64908 0.972,0.10453 z m 40.510558,-0.37359 c 0.195,-0.23845 0.0986,-0.54623 -0.34168,-1.09186 l -0.61324,-0.7598 -0.31093,0.5879 c -0.25597,0.48395 -0.22936,0.67717 0.15049,1.0928 0.54037,0.59123 0.7459,0.62276 1.11536,0.17096 z m 16.19464,-0.27419 c 0.32463,-0.20924 0.17306,-0.46677 -0.84451,-1.4348 l -1.24017,-1.17979 -0.41614,0.64192 c -0.51195,0.78977 -0.51756,0.92566 -0.0381,0.92332 0.20711,-0.002 0.73176,0.29409 1.1659,0.65576 0.89831,0.74842 0.8459,0.73339 1.37311,0.39359 z m 32.22301,-0.74305 c 0.40018,-0.40412 0.40388,-0.74282 0.009,-0.74087 -0.16817,8.6e-4 -0.72279,-0.31337 -1.23249,-0.69821 -0.88883,-0.67109 -0.94127,-0.6796 -1.28276,-0.20774 -0.52329,0.72304 -0.45872,0.85644 0.69636,1.43865 1.22429,0.61704 1.38732,0.63579 1.81077,0.20817 z m -75.160608,0.35432 c 0.17557,-0.22851 0.0624,-0.60787 -0.3632,-1.21722 l -0.61824,-0.88523 -0.31045,0.69026 c -0.26129,0.58099 -0.23406,0.77384 0.17201,1.21816 0.5611,0.61395 0.7695,0.65007 1.11988,0.19403 z"
       id="path10"
       sodipodi:nodetypes="ssssscssssssssssssssssssssssscsssscsssssssssssssssssssssssssscccscsssssssssssssssssssssssssscssccsscsssssssscssssssssssssssssssssscsssssscssscssssssssssssssssssssssssccsscssssscsssssssscssssssssssssssscsssssssssssssssssssssscsssssssssssssssssssssssssssssssssssssssssssscscssssssssssssccscssssssssssssssscssssssscsssssscssssscsssscsssssssssssssscssssscsssssssssssssscss"
       inkscape:export-filename="bd4-r.svg"
       inkscape:export-xdpi="96"
       inkscape:export-ydpi="96" /></g></svg>
