<?xml version="1.0" encoding="UTF-8" standalone="no"?>
<!-- Created with Inkscape (http://www.inkscape.org/) -->

<svg
   width="87.41539mm"
   height="51.972103mm"
   viewBox="0 0 87.41539 51.972103"
   version="1.1"
   id="svg1"
   xml:space="preserve"
   xmlns="http://www.w3.org/2000/svg"
   xmlns:svg="http://www.w3.org/2000/svg"><defs
     id="defs1" /><g
     id="layer1"
     transform="translate(-55.794763,-119.65052)"><path
       style="fill:#003b57;fill-opacity:1"
       d="m 142.7949,151.02193 c -1.04357,4.81556 -3.28869,9.04502 -6.71026,12.64107 -3.57598,3.75833 -7.39345,6.00493 -12.74386,7.49982 -1.38082,0.38579 -2.63565,0.47619 -6.351,0.45749 -4.26598,-0.0215 -4.81428,-0.0802 -6.97102,-0.74754 -2.54054,-0.78604 -5.85034,-2.35154 -7.75498,-3.66803 -3.28826,-2.27285 -6.675615,-6.2347 -8.490833,-9.93086 -1.30963,-2.6667 -1.802838,-4.22042 -2.389425,-7.52721 -0.563783,-3.1783 -1.359911,-4.35258 -2.309744,-3.40686 -0.217498,0.21658 -0.16243,0.51406 0.208253,1.12494 0.327426,0.53957 0.497559,1.29389 0.485685,2.15338 l -0.01829,1.32287 -0.569252,-1.1398 c -0.456628,-0.91431 -0.499751,-1.18257 -0.217926,-1.35588 0.272864,-0.16784 0.284319,-0.34193 0.05128,-0.77955 -0.364294,-0.68423 -0.571599,-0.70106 -1.263493,-0.10245 -0.408733,0.35358 -0.469668,0.56398 -0.259887,0.89745 0.212591,0.33795 0.109852,0.62981 -0.458401,1.3022 -0.48541,0.57436 -0.693209,1.07412 -0.616169,1.48191 0.06397,0.33841 0.03747,0.61512 -0.05872,0.61492 -0.405687,-3e-5 -0.808486,-0.68848 -0.806999,-1.37758 0.0013,-0.56962 -0.123312,-0.74109 -0.5389,-0.74199 -0.297273,-0.001 -1.108838,-0.53509 -1.803482,-1.18766 -0.966802,-0.90824 -1.335969,-1.11379 -1.574272,-0.87653 -0.487991,0.4859 -0.370055,2.36062 0.208479,3.31412 0.437495,0.72102 0.456584,0.86088 0.117425,0.86015 -0.526201,-9.3e-4 -1.70133,-1.18404 -1.700192,-1.71144 4.81e-4,-0.22489 -0.218787,-0.40937 -0.487276,-0.40995 -0.268486,-10e-4 -0.706398,-0.24325 -0.973139,-0.53928 -0.383781,-0.42592 -0.432065,-0.68827 -0.231407,-1.25727 0.29259,-0.8297 1.18261,-1.07456 1.686994,-0.46414 0.282415,0.34179 0.267336,0.41022 -0.09018,0.40944 -0.438716,-0.001 -0.600777,0.65611 -0.220136,0.8925 0.291799,0.18122 0.647056,-0.10382 1.192356,-0.95668 0.464068,-0.7258 0.463552,-0.72741 -0.400264,-1.26312 -1.297977,-0.80494 -2.004931,-0.91953 -2.56419,-0.4156 -0.440437,0.39686 -0.527835,0.39974 -0.896547,0.0295 -0.543472,-0.54583 -1.172366,-0.5217 -1.323281,0.0507 -0.114952,0.43604 -0.123722,0.43619 -0.151699,0.003 -0.02758,-0.42674 -0.749616,-0.46668 -10.017548,-0.55406 l -9.98784,-0.0942 9.968732,-0.0414 c 9.240924,-0.0384 9.977646,-0.0752 10.090732,-0.50412 0.116191,-0.44071 0.123411,-0.44071 0.151693,1.4e-4 0.03115,0.48557 1.087564,0.68041 1.088598,0.20079 8e-4,-0.36111 0.691977,-0.33159 1.309533,0.0559 0.417836,0.2622 0.747235,0.2074 1.855201,-0.30864 0.740936,-0.34509 1.311003,-0.69519 1.266811,-0.778 -0.04422,-0.0828 -0.243748,-0.47834 -0.443475,-0.87894 -0.383661,-0.76954 -1.33594,-1.00709 -1.337394,-0.33362 -4.32e-4,0.21828 0.192325,0.3973 0.428424,0.3978 0.35157,6.3e-4 0.369493,0.0727 0.09904,0.39709 -0.49818,0.59765 -1.298856,0.47405 -1.627422,-0.25122 -0.392282,-0.86593 -0.119406,-1.45678 0.838732,-1.81608 0.436584,-0.16371 0.794134,-0.45557 0.79455,-0.64856 0.0011,-0.49174 1.214927,-1.64714 1.729336,-1.64603 0.365229,7.3e-4 0.347609,0.1118 -0.121928,0.7682 -0.597855,0.83578 -0.726803,2.37832 -0.270462,3.23544 0.267427,0.50229 0.351906,0.4661 1.577622,-0.67547 0.712292,-0.66337 1.538295,-1.20563 1.835574,-1.20499 0.41559,10e-4 0.540868,-0.17004 0.542097,-0.73966 0.0015,-0.68909 0.407257,-1.37495 0.812947,-1.37408 0.0962,3.1e-4 0.121472,0.27704 0.05607,0.61516 -0.07879,0.4074 0.126731,0.90799 0.609209,1.48391 0.596206,0.71165 0.67371,0.95579 0.427834,1.34761 -0.248486,0.396 -0.19001,0.55112 0.339069,0.89941 0.814046,0.5359 0.844274,0.53236 1.206357,-0.14071 0.234883,-0.43661 0.224179,-0.61075 -0.04792,-0.77975 -0.281064,-0.17455 -0.236796,-0.4426 0.223774,-1.35494 l 0.574165,-1.13733 0.01254,1.32295 c 0.0082,0.86289 -0.165261,1.61318 -0.498816,2.15756 -0.487157,0.79506 -0.489406,0.85459 -0.0475,1.25627 0.427492,0.38856 0.51153,0.3712 1.070379,-0.22111 0.448376,-0.47521 0.732807,-1.33756 1.091131,-3.30805 0.599433,-3.29653 1.10048,-4.84242 2.446653,-7.54885 1.433009,-2.88096 2.957231,-4.93822 5.301572,-7.15551 3.320842,-3.14087 6.591452,-5.02966 10.940222,-6.31805 3.19046,-0.94521 8.74095,-1.18009 12.0186,-0.50858 5.46218,1.11905 9.56627,3.33849 13.51328,7.30784 3.87996,3.90192 6.07158,7.93554 7.13082,13.1241 0.59392,2.90929 0.61466,7.92095 0.0437,10.55566 z m -0.2344,-9.64381 c -1.66564,-9.93272 -9.04765,-17.9524 -19.07201,-20.71943 -3.04153,-0.83955 -9.34818,-0.84037 -12.47417,-0.002 -3.13502,0.84119 -5.56906,1.92052 -8.0778,3.58197 -2.24269,1.48526 -5.502994,4.66797 -6.999193,6.83261 -2.104033,3.04402 -3.831255,7.69141 -4.410878,11.86826 -0.100866,0.72668 -0.434985,1.56374 -0.793622,1.9881 l -0.619442,0.73294 0.615381,0.71856 c 0.36157,0.42218 0.685357,1.23908 0.785058,1.98064 0.56146,4.17625 2.252825,8.79645 4.356949,11.90165 1.244708,1.8369 4.332527,4.99032 6.209957,6.34193 3.92359,2.82468 8.6921,4.50702 13.63386,4.81009 16.46244,1.00956 29.58917,-13.67683 26.84591,-30.03571 z m -2.6216,8.61285 c -1.74668,8.72157 -7.73664,15.2658 -16.46346,17.9868 -2.17872,0.67932 -2.71144,0.73981 -6.34707,0.72063 -3.52782,-0.0184 -4.22684,-0.1002 -6.29241,-0.73474 -9.64121,-2.96165 -16.110051,-11.03236 -16.71148,-20.84968 -0.562481,-9.18163 4.498562,-17.98399 12.70295,-22.09349 4.53601,-2.27203 10.20701,-3.00864 15.09267,-1.96042 8.54373,1.83309 15.55133,8.54819 17.74935,17.00841 0.6052,2.32947 0.74668,7.53952 0.26945,9.92249 z m -1.29974,-10.98305 c -3.08854,-9.5512 -11.5864,-15.74972 -21.5451,-15.71545 -11.45902,0.0395 -20.94213,8.54722 -22.218109,19.93299 -1.38613,12.3687 7.727879,23.62149 20.101799,24.81915 7.8007,0.75499 15.3416,-2.51956 20.0121,-8.69004 1.87786,-2.48094 3.0797,-4.91823 3.90082,-7.91066 0.54048,-1.9697 0.60806,-2.7384 0.54649,-6.21655 -0.0618,-3.48953 -0.15813,-4.24073 -0.798,-6.21944 z m -0.98517,11.8987 c -1.91705,7.2589 -7.21035,12.77935 -14.43427,15.05366 -1.30679,0.4114 -2.79488,0.62214 -5.04603,0.71454 -4.31447,0.1771 -6.75521,-0.32006 -10.42909,-2.12435 -2.46239,-1.20934 -3.05787,-1.64928 -5.28326,-3.90331 -4.776309,-4.83785 -6.509829,-9.25911 -6.238038,-15.90992 0.14909,-3.64841 0.689685,-5.81821 2.141209,-8.59435 3.797149,-7.2623 10.742859,-11.48622 18.858859,-11.46871 6.22022,0.0134 11.1195,2.18545 15.51535,6.87851 2.31961,2.47645 4.09607,5.75885 4.95158,9.14917 0.71326,2.82656 0.69689,7.42855 -0.0363,10.20476 z m -2.4767,0.42721 c -1.10942,0.61692 -1.46073,0.68138 -3.06788,0.56291 -2.16732,-0.15979 -3.2142,-0.7197 -5.55075,-2.96882 -1.7783,-1.71176 -1.77873,-1.70403 0.14269,-2.45112 1.29327,-0.50286 2.18948,-0.42411 2.38921,0.20994 0.0991,0.31449 0.67418,0.77806 1.32393,1.06715 0.63183,0.28113 1.38017,0.80661 1.66298,1.16774 0.2828,0.36113 0.63913,0.65687 0.79184,0.6572 0.40175,0 1.10339,-1.08295 1.10713,-1.71013 0.002,-0.34876 0.37885,-0.74991 1.07692,-1.1466 1.30821,-0.74343 1.28579,-1.29724 -0.0823,-2.03353 -0.64097,-0.34495 -0.98704,-0.71944 -0.98677,-1.06774 6.9e-4,-0.62648 -0.69607,-1.71402 -1.09842,-1.71489 -0.1527,-1.4e-4 -0.51031,0.29387 -0.79467,0.65379 -0.28437,0.3599 -1.03496,0.88214 -1.668,1.16054 -0.65098,0.28628 -1.22809,0.74738 -1.32851,1.06142 -0.23561,0.7368 -1.39545,0.73186 -2.86321,-0.0124 -0.612,-0.31026 -1.14826,-0.59506 -1.19169,-0.63291 -0.16961,-0.1478 3.22551,-3.20152 4.21467,-3.79086 0.68689,-0.40925 1.62148,-0.66891 2.71488,-0.75431 1.57732,-0.1232 2.50118,0.12581 4.43308,1.19462 0.43039,0.23812 -0.15692,-1.26747 -0.77773,-1.99373 -0.76141,-0.89077 -2.71048,-1.89824 -3.69448,-1.9097 -0.63897,-0.008 -1.66047,0.43295 -1.92128,0.82831 -0.0833,0.12625 -0.43973,-0.2136 -0.79211,-0.75524 -0.80047,-1.23036 -1.94133,-1.59354 -3.27107,-1.0413 -0.97187,0.40361 -1.42891,1.33563 -1.08046,2.20335 0.1657,0.41268 0.21186,0.3982 0.41715,-0.1308 0.48877,-1.25943 2.62858,-0.32761 2.62541,1.14328 -7.7e-4,0.37104 -0.17679,1.01187 -0.39109,1.42409 -0.4127,0.79386 -2.68978,2.92178 -3.1256,2.92083 -0.39991,1e-5 -1.97213,-1.82983 -2.45791,-2.85927 -0.27667,-0.58627 -0.3866,-1.29038 -0.30029,-1.9234 0.13064,-0.95827 0.10791,-0.99388 -0.56351,-0.88235 -0.38482,0.0639 -0.93838,0.39563 -1.23016,0.73718 -0.39761,0.46542 -0.66295,0.56691 -1.05922,0.40513 -2.24321,-0.91586 -5.35,0.52548 -6.06506,2.81378 -0.11823,0.37833 -0.52348,0.65214 -1.22727,0.82916 -0.98819,0.24856 -1.08999,0.21743 -1.71036,-0.52308 -0.74735,-0.89205 -0.88023,-2.33761 -0.27071,-2.94451 0.21181,-0.21089 0.31155,-0.4573 0.22166,-0.54759 -0.30479,-0.30609 -1.35838,-0.16868 -1.75808,0.2293 -0.21875,0.21781 -0.47125,0.39585 -0.56109,0.39566 -0.24804,-8.5e-4 -1.45057,-2.71209 -1.45229,-3.27477 -6.9e-4,-0.44237 0.14518,-0.47486 1.41434,-0.3135 0.77874,0.099 1.98774,0.35346 2.68667,0.56545 2.48319,0.75317 4.77546,0.22607 5.80269,-1.33433 l 0.46129,-0.70071 0.62371,0.58848 c 0.7693,0.72585 2.52805,1.07923 3.73147,0.74976 0.49686,-0.13604 1.34595,-0.72897 1.89015,-1.3199 2.86278,-3.10863 3.18197,-3.38758 3.87432,-3.38609 0.88692,0.002 1.48828,1.07786 0.95799,1.71403 -0.18522,0.22219 -0.5107,0.40361 -0.72328,0.40315 -0.61114,-0.002 -0.23619,0.65127 0.43119,0.75046 1.06113,0.1577 1.85041,-0.20278 2.28833,-1.04516 0.60751,-1.16859 0.31202,-2.38475 -0.82246,-3.38518 -0.75397,-0.66489 -1.15627,-0.81628 -2.17285,-0.81765 -1.24203,-0.001 -2.75684,0.65822 -3.40714,1.48431 -0.26108,0.33162 -0.40253,0.28978 -0.97954,-0.28973 -0.72782,-0.73097 -1.46791,-0.85207 -2.34696,-0.38405 -0.53557,0.28514 -0.52592,0.30813 0.27138,0.64539 0.84386,0.35695 1.30999,1.32718 1.01036,2.103 -0.0844,0.21864 -0.57547,0.59762 -1.09119,0.84218 -1.53102,0.72606 -2.21196,0.30941 -3.33777,-2.04216 -0.9219,-1.92569 -0.9354,-1.99734 -0.44128,-2.34277 0.6372,-0.44543 1.07108,-1.53837 0.86741,-2.18492 -0.14679,-0.46596 -0.19348,-0.46157 -0.94095,0.0886 -0.64593,0.4754 -1.27149,0.60471 -3.50028,0.72358 -2.33431,0.12448 -2.89002,0.24748 -3.97385,0.8795 -1.36363,0.79521 -2.62581,2.32287 -3.10153,3.75391 -0.24723,0.74372 -0.49003,0.95038 -1.40285,1.19407 -2.15125,0.57429 -3.36123,1.94569 -3.36526,3.8142 -0.004,1.85539 2.37784,3.26379 3.54846,2.09821 0.59173,-0.58918 0.51741,-0.90602 -0.21287,-0.9076 -0.9807,-0.002 -1.13082,-1.03775 -0.2609,-1.80004 0.96849,-0.84871 1.39539,-0.65172 1.90932,0.881 0.59731,1.7815 1.60915,3.47012 3.03124,5.05869 l 1.17698,1.31479 -1.00675,0.84153 c -0.55372,0.46284 -1.47909,0.94657 -2.05638,1.07498 -0.97998,0.21797 -1.0784,0.18442 -1.48411,-0.50573 -0.2421,-0.4119 -0.83885,-0.87362 -1.3477,-1.04277 -0.50225,-0.16696 -1.2063,-0.65344 -1.56456,-1.08106 -0.35824,-0.42762 -0.77136,-0.77776 -0.91802,-0.77808 -0.4032,-1e-5 -1.09279,1.0984 -1.09419,1.7442 -8.5e-4,0.38129 -0.25834,0.67636 -0.776539,0.88968 -0.426413,0.17555 -0.969177,0.5325 -1.206143,0.79319 -0.401393,0.44161 -0.383276,0.51157 0.265073,1.02383 0.382739,0.30241 0.92404,0.62278 1.20288,0.71195 0.298269,0.0953 0.506479,0.40286 0.505749,0.74687 -10e-4,0.72477 0.69508,1.76233 1.18399,1.76339 0.20022,7.2e-4 0.43364,-0.21686 0.5187,-0.4829 0.0851,-0.26603 0.71924,-0.75978 1.40927,-1.09722 0.69004,-0.33744 1.55299,-0.95715 1.9177,-1.37713 0.62549,-0.72025 0.71563,-0.74536 1.58847,-0.44249 0.50893,0.1766 1.35919,0.70918 1.88945,1.18351 l 0.96412,0.86244 -0.78942,0.75028 c -1.19539,1.13609 -2.78946,3.64084 -3.43311,5.39432 -0.61693,1.68074 -0.66968,1.72104 -1.65929,1.26756 -1.15452,-0.52905 -1.15607,-2.08691 -0.003,-2.08443 0.71435,0.001 0.77342,-0.18878 0.26668,-0.85931 -0.59693,-0.78991 -2.10828,-0.61123 -2.91619,0.34474 -1.706359,2.01901 -0.17803,4.855 3.03555,5.63284 0.51639,0.125 0.807,0.47627 1.15687,1.39838 0.25698,0.67728 0.93709,1.7033 1.51134,2.28004 1.55825,1.56499 2.8401,2.05128 5.43998,2.06377 2.115,0.0108 3.59616,0.42815 4.05652,1.14477 0.0928,0.14464 0.24504,0.025 0.33803,-0.26583 0.21952,-0.6865 -0.19762,-1.77106 -0.86062,-2.23758 -0.5138,-0.36153 -0.50675,-0.40304 0.38542,-2.26571 0.94316,-1.96921 1.45311,-2.44368 2.62368,-2.44116 0.82336,0.002 1.98741,1.08294 1.98577,1.84435 -10e-4,0.69006 -0.98553,1.68337 -1.47889,1.49282 -0.56612,-0.21864 -0.45297,0.3079 0.13401,0.62368 0.83463,0.44899 1.58594,0.31963 2.30568,-0.39701 0.57951,-0.57701 0.72115,-0.61825 0.98078,-0.2855 1.00144,1.28348 3.15396,1.81457 4.90194,1.20945 0.82849,-0.28681 1.88596,-1.81139 1.88792,-2.72187 0.003,-1.32508 -1.63576,-2.69876 -2.73669,-2.29419 -0.64837,0.23825 -0.89994,0.80815 -0.35727,0.80931 0.70932,0.001 1.09022,0.73821 0.75731,1.46468 -0.65445,1.42821 -2.04908,0.64181 -4.66911,-2.63277 -1.41511,-1.76868 -4.30333,-2.12304 -5.81081,-0.71294 l -0.62625,0.58578 -0.45826,-0.70268 c -1.02506,-1.57184 -3.31043,-2.10199 -5.82409,-1.35106 -0.71481,0.21353 -1.98459,0.46431 -2.82172,0.55729 l -1.52205,0.16904 0.37714,-1.06167 c 0.52188,-1.46904 1.18902,-2.70755 1.45814,-2.70698 0.12396,6.8e-4 0.37322,0.1794 0.55391,0.39807 0.35817,0.43347 1.46755,0.54172 1.70091,0.16594 0.0801,-0.12885 -0.0316,-0.38179 -0.24775,-0.5621 -0.61591,-0.51341 -0.47942,-1.96808 0.26759,-2.85198 0.62322,-0.73742 0.7119,-0.76273 1.72034,-0.49123 0.68698,0.18496 1.12211,0.47775 1.2296,0.8274 0.69682,2.26664 3.81026,3.71669 6.04516,2.81548 0.39793,-0.16046 0.6609,-0.0571 1.05746,0.41581 0.29029,0.34616 0.81833,0.66064 1.17342,0.69886 0.60852,0.0654 0.64189,8e-4 0.58079,-1.13862 -0.0578,-1.07587 0.0702,-1.38691 1.16873,-2.84176 0.67846,-0.8985 1.41158,-1.63326 1.62918,-1.6328 0.21758,9.6e-4 1.09894,0.70723 1.95856,1.57058 1.32583,1.33155 1.56264,1.71341 1.5609,2.5169 -0.004,1.70904 -2.08995,2.82369 -2.62889,1.40457 -0.22478,-0.59189 -0.22749,-0.5912 -0.41108,0.10676 -0.26149,0.99408 0.23533,1.74464 1.38287,2.0892 1.51138,0.45379 2.36124,0.003 3.38459,-1.79316 0.0218,-0.0382 0.48654,0.11834 1.03278,0.34796 1.82496,0.76716 4.58701,-0.41547 5.45088,-2.33387 0.27035,-0.60041 0.45726,-1.12609 0.41531,-1.1682 -0.0419,-0.0421 -0.64003,0.23693 -1.3291,0.62014 z m -9.73245,-4.984 -1.12579,0.61 -1.883,-0.64019 -1.88299,-0.64019 1.89749,-0.59711 1.89751,-0.59711 1.11139,0.58234 c 0.61127,0.32029 1.11134,0.60257 1.11129,0.6273 -5e-5,0.0247 -0.5067,0.31945 -1.1259,0.65496 z m -2.84042,2.37862 -1.00648,1.15397 -0.55962,-0.56203 c -0.69128,-0.69428 -1.44817,-0.71977 -2.07173,-0.0698 -0.79913,0.83302 -2.26933,1.43705 -3.49487,1.43584 -0.94236,-0.001 -1.28504,-0.13974 -1.78438,-0.7228 -0.33992,-0.3969 -0.61766,-0.89359 -0.6172,-1.10376 9.7e-4,-0.21867 -0.25381,-0.3844 -0.59448,-0.38745 -0.32742,-0.002 -0.74956,-0.10371 -0.93809,-0.22382 -0.45595,-0.29062 -0.0751,-0.60031 1.81264,-1.47407 1.6416,-0.75984 2.37209,-0.84758 2.37088,-0.28475 -0.002,0.65617 0.95262,1.00316 1.43571,0.52216 0.22888,-0.22791 0.41642,-0.5403 0.41675,-0.69422 0.001,-0.55067 5.17435,0.40578 5.86196,1.08379 0.0965,0.0951 -0.27754,0.69222 -0.83109,1.32691 z m -0.40429,-4.21963 c -0.80288,0.29841 -2.1047,0.61697 -2.89294,0.70789 -1.34185,0.15477 -1.47406,0.11756 -2.07465,-0.58371 l -0.64146,-0.74902 -0.65647,0.7053 c -0.55842,0.59994 -0.77366,0.67142 -1.44087,0.47851 -0.86301,-0.24954 -2.41001,-1.00126 -2.94622,-1.43167 -0.43229,-0.34698 0.044,-0.70766 0.94011,-0.71182 0.34069,-10e-4 0.59567,-0.16621 0.59614,-0.38488 8.6e-4,-0.21016 0.27974,-0.70497 0.62063,-1.09955 1.03775,-1.20119 3.38225,-0.89533 5.17547,0.67519 0.79658,0.69764 1.46229,0.70691 2.14228,0.0298 0.29166,-0.29041 0.56462,-0.52796 0.60657,-0.52787 0.042,1e-4 0.51611,0.5287 1.05372,1.17469 l 0.97746,1.1745 z m -6.79985,17.01598 c -1.80564,3.40357 -6.96467,2.74453 -9.07875,-1.15978 -0.72719,-1.34297 -0.73478,-1.63915 -0.0445,-1.73895 0.1961,-0.0283 0.72866,-0.13244 1.18347,-0.23131 0.66928,-0.14548 0.82674,-0.0952 0.82596,0.26347 1.8e-4,0.24378 0.19659,0.7793 0.43804,1.19005 1.51445,2.57645 5.73659,1.04344 4.68957,-1.70273 -0.14386,-0.37735 -0.21142,-0.36376 -0.54441,0.10948 -0.47968,0.68171 -1.30658,0.69451 -1.66264,0.0257 -0.9531,-1.79015 0.93581,-3.30861 2.95994,-2.37945 1.676,0.76937 2.29972,3.61334 1.2333,5.62349 z m 0.37486,-27.72559 c -0.73877,1.66681 -3.19105,2.52251 -4.23227,1.47679 -0.61269,-0.61533 -0.73796,-1.86105 -0.23729,-2.35956 0.45263,-0.45069 1.44981,-0.38994 1.63648,0.0996 0.2338,0.6132 0.6925,0.1936 0.68458,-0.62622 -0.0161,-1.67928 -2.01639,-2.68164 -3.7678,-1.88821 -0.69071,0.31291 -1.51467,1.51874 -1.51618,2.21884 -6.9e-4,0.35873 -0.15844,0.40829 -0.8271,0.2599 -0.45437,-0.1009 -1.01966,-0.22146 -1.25619,-0.26808 -0.23653,-0.0466 -0.46139,-0.0939 -0.49972,-0.1051 -0.0382,-0.0112 0.11732,-0.46647 0.34583,-1.01169 0.86151,-2.05544 3.52771,-4.02729 5.43987,-4.02316 1.2601,0.002 2.81783,0.78473 3.59077,1.80265 0.55317,0.72849 0.7436,1.30619 0.7997,2.42588 0.0405,0.8083 -0.0322,1.70755 -0.16068,1.99832 z m -2.48068,12.30743 c -0.48422,0.19406 -1.32806,0.62895 -1.87522,0.96641 l -0.99483,0.61356 -1.29499,-0.97115 -1.29497,-0.97116 1.27074,-1 1.27073,-1.00003 1.89946,1.00475 1.89946,1.00476 z m -24.803881,-1.12149 c -0.09989,-3.5e-4 -0.404781,0.16205 -0.677529,0.36059 -0.478313,0.34818 -0.474865,0.37229 0.09713,0.68003 0.764425,0.41124 1.547896,-0.0891 1.061436,-0.67781 -0.164701,-0.19934 -0.381189,-0.36259 -0.481079,-0.36281 z m -0.949565,1.21113 c -0.700528,-0.46117 -0.720972,-0.45414 -1.982936,0.68163 -0.465184,0.41866 -0.525445,0.40046 -1.104803,-0.3337 l -0.612785,-0.77649 -0.868197,0.55834 c -0.665305,0.42786 -0.801062,0.63963 -0.580887,0.90609 0.432243,0.52311 2.395938,1.11638 3.29406,0.99521 0.657044,-0.0887 2.517949,-1.20143 2.518606,-1.50607 1.05e-4,-0.0486 -0.298265,-0.28487 -0.663058,-0.52501 z m -1.417428,-3.08444 c -0.744737,-0.31254 -3.202024,0.29522 -3.723626,0.92096 -0.267423,0.32081 -0.170272,0.48276 0.558691,0.93134 l 0.882401,0.54303 0.722346,-0.85977 c 0.397292,-0.47289 0.72522,-0.70801 0.72873,-0.5225 0.0036,0.18551 0.303807,0.45111 0.667308,0.59021 0.3635,0.1391 0.660646,0.37798 0.660316,0.53084 -3.01e-4,0.16193 0.346748,0.0992 0.831666,-0.15018 l 0.832266,-0.42811 -0.7638,-0.6452 c -0.420095,-0.35486 -1.048432,-0.76464 -1.396298,-0.91062 z m -5.256657,1.93009 -0.884532,0.51932 0.86303,0.5941 0.86302,0.59409 0.841436,-0.54898 0.841437,-0.54898 -0.819935,-0.56443 -0.819923,-0.56443 z"
       id="path1" /></g></svg>
